<?xml version="1.0" encoding="UTF-8"?>
<svg version="1.1" xmlns="http://www.w3.org/2000/svg" width="535" height="466">
<path d="M0 0 C-0.40806268 8.53936879 -2.57476875 16.40038065 -4.9453125 24.57421875 C-5.35213257 26.00123298 -5.75811742 27.42848554 -6.16333008 28.85595703 C-7.02632195 31.89077811 -7.89422076 34.9241321 -8.76617432 37.95639038 C-10.83845983 45.1645151 -12.8845362 52.38009938 -14.93304062 59.59501076 C-15.62641793 62.03624222 -16.32076205 64.47719734 -17.01516724 66.9181366 C-21.15433269 81.48040427 -25.1620902 96.07624173 -29.125 110.6875 C-29.73700692 112.93690784 -30.34922731 115.18625762 -30.96166992 117.43554688 C-33.38232311 126.33111791 -35.79564523 135.22846776 -38.17900085 144.1341095 C-45.70298006 172.20981819 -53.0478136 196.98795021 -74 218 C-74.77859375 218.80179688 -75.5571875 219.60359375 -76.359375 220.4296875 C-93.54696765 237.09819178 -117.50766794 244.07316855 -141 244 C-167.9214696 242.9984478 -190.34068198 230.21363081 -208.43798828 210.76171875 C-213.03206093 205.58028264 -217.09395535 199.95925838 -221.21240234 194.39941406 C-224.45461029 190.0475403 -227.76538498 185.74781948 -231.0625 181.4375 C-236.35838077 174.49287786 -241.6205076 167.52423871 -246.84838867 160.52832031 C-249.82250273 156.55337557 -252.83431119 152.61176559 -255.875 148.6875 C-260.56531707 142.61414071 -265.11641486 136.44378288 -269.65844727 130.2590332 C-273.68456851 124.77859074 -277.73376636 119.31640992 -281.8125 113.875 C-282.32216309 113.19397217 -282.83182617 112.51294434 -283.35693359 111.8112793 C-285.54412363 108.79232671 -285.54412363 108.79232671 -288 106 C-288.37109375 103.71875 -288.37109375 103.71875 -288 101 C-285.97265625 98.78125 -285.97265625 98.78125 -283.0625 96.5 C-282.53108398 96.0769458 -281.99966797 95.6538916 -281.45214844 95.21801758 C-279.64897444 93.79268816 -277.82723376 92.39433283 -276 91 C-275.34692871 90.49903809 -274.69385742 89.99807617 -274.02099609 89.48193359 C-271.20929856 87.32690436 -268.39450514 85.17613356 -265.5715332 83.03588867 C-260.55115629 79.22192 -255.62770523 75.30694828 -250.75 71.3125 C-245.78063403 67.25226877 -240.80375985 63.20502218 -235.75 59.25 C-234.73421875 58.45078125 -233.7184375 57.6515625 -232.671875 56.828125 C-230.22907707 55.15673694 -228.80834008 54.59099325 -226 54 C-221.2307941 59.26819547 -216.90896478 64.69704856 -212.8125 70.5 C-211.67040758 72.09846906 -210.52715539 73.69611003 -209.3828125 75.29296875 C-208.8146582 76.08622559 -208.24650391 76.87948242 -207.66113281 77.69677734 C-199.97356439 88.35587795 -191.91890575 98.75428015 -183.94018555 109.19555664 C-180.26437822 114.00971266 -176.6195554 118.84397634 -173.01367188 123.71069336 C-165.87016286 134.81034785 -165.87016286 134.81034785 -156.12744141 142.77661133 C-153.94143564 143.22451087 -153.94143564 143.22451087 -152.13623047 141.85644531 C-151.1986792 140.97617676 -151.1986792 140.97617676 -150.2421875 140.078125 C-149.19756348 139.10262695 -149.19756348 139.10262695 -148.13183594 138.10742188 C-144.71346463 134.7281982 -141.39126347 131.27626653 -138.125 127.75 C-137.42882568 127.00347168 -136.73265137 126.25694336 -136.01538086 125.48779297 C-134.00579118 123.32928437 -132.00220188 121.1653597 -130 119 C-129.22825439 118.17000488 -129.22825439 118.17000488 -128.44091797 117.32324219 C-123.22884122 111.71533482 -118.27956763 105.95814004 -113.46875 100.00390625 C-109.52146376 95.20095828 -105.42264183 90.53145107 -101.33984375 85.84375 C-98.11945263 82.14512003 -94.93304005 78.41826432 -91.75 74.6875 C-87.57253841 69.79815653 -83.32590514 64.98145361 -79.00390625 60.21875 C-77.18688018 58.20691607 -75.40055608 56.17339566 -73.625 54.125 C-25.91846894 -0.53873351 -25.91846894 -0.53873351 0 0 Z " fill="#159E67" transform="translate(342,183)"/>
<path d="M0 0 C5.00642094 1.4686733 7.65615442 4.38128677 11.125 8.0625 C15.89445492 12.98251954 20.799377 17.42171418 26.17578125 21.68359375 C29.46387336 24.38046598 32.57785543 27.22620908 35.6875 30.125 C36.2451001 30.64457275 36.8027002 31.16414551 37.37719727 31.69946289 C38.44614655 32.69577906 39.51507649 33.69211598 40.58398438 34.68847656 C43.6572741 37.5349787 46.8210593 40.27277378 50 43 C50.4851709 43.41685059 50.9703418 43.83370117 51.47021484 44.26318359 C55.02620072 47.31799738 58.5869323 50.36723432 62.14892578 53.41503906 C63.95341852 54.96011515 65.75631496 56.50702979 67.55859375 58.0546875 C68.72654194 59.05731562 69.89451056 60.05991994 71.0625 61.0625 C71.63556885 61.55459961 72.2086377 62.04669922 72.79907227 62.55371094 C75.71906241 65.05761792 78.64795021 67.54992626 81.59375 70.0234375 C82.46761353 70.75808228 82.46761353 70.75808228 83.35913086 71.50756836 C84.45454678 72.42713996 85.55158585 73.34478333 86.65063477 74.26000977 C89.94661708 77.02718496 92.99952113 79.92244461 96 83 C94.62840255 86.17404746 93.15773943 87.97625583 90.47265625 90.13671875 C89.76874756 90.70914307 89.06483887 91.28156738 88.33959961 91.87133789 C87.58815674 92.47067139 86.83671387 93.07000488 86.0625 93.6875 C84.9034314 94.62613892 84.9034314 94.62613892 83.72094727 95.58374023 C82.17853347 96.8323916 80.63389896 98.07830545 79.08691406 99.32128906 C76.52252394 101.38408112 73.9790918 103.47171042 71.4375 105.5625 C46.39264007 126.02598311 46.39264007 126.02598311 36.73828125 133.54296875 C29.72714479 139.00745924 22.86015229 144.59811092 16.09765625 150.3671875 C9.83671127 155.70470654 3.44442554 160.8860365 -3 166 C-4.051875 166.8353125 -4.051875 166.8353125 -5.125 167.6875 C-7 169 -7 169 -10 170 C-11.05193809 166.84418572 -10.96707373 165.79941474 -10.36328125 162.63623047 C-10.19981201 161.75877167 -10.03634277 160.88131287 -9.86791992 159.9772644 C-9.68463135 159.03343903 -9.50134277 158.08961365 -9.3125 157.1171875 C-9.13114502 156.14717804 -8.94979004 155.17716858 -8.76293945 154.17776489 C-8.18238641 151.07545797 -7.59209893 147.97512254 -7 144.875 C-6.40853129 141.7676324 -5.81927435 138.65992736 -5.23706055 135.55081177 C-4.87431591 133.61443464 -4.5060987 131.67907368 -4.13208008 129.74484253 C-3.96861084 128.87368805 -3.8051416 128.00253357 -3.63671875 127.10498047 C-3.48936279 126.33459442 -3.34200684 125.56420837 -3.19018555 124.77047729 C-3.12742432 124.18621979 -3.06466309 123.60196228 -3 123 C-4.76922939 121.23077061 -7.11352806 121.83467477 -9.47094727 121.80932617 C-30.28521926 121.8383123 -47.8623476 127.10532736 -66 137 C-66.87914062 137.47050781 -67.75828125 137.94101563 -68.6640625 138.42578125 C-79.92861811 144.81154104 -90.40776432 153.21261787 -99.86328125 162.01171875 C-101.76184661 163.77839109 -103.7045279 165.45490623 -105.6875 167.125 C-115.11983838 175.36871038 -124.04409032 184.38372149 -131.796875 194.22265625 C-134.91674462 198.15568338 -138.18923278 201.95437936 -141.45996094 205.76220703 C-143.99485051 208.69856704 -143.99485051 208.69856704 -146 212 C-146.99 212 -147.98 212 -149 212 C-148.31993182 206.32049876 -147.04271894 200.94133206 -145.55859375 195.421875 C-145.31530334 194.50546738 -145.07201294 193.58905975 -144.8213501 192.6448822 C-144.03177943 189.67854603 -143.23542668 186.71409868 -142.4375 183.75 C-142.1664444 182.74023102 -141.89538879 181.73046204 -141.61611938 180.69009399 C-128.3514396 131.32093711 -128.3514396 131.32093711 -121 117 C-120.47986328 115.98607178 -120.47986328 115.98607178 -119.94921875 114.95166016 C-115.4169972 106.26156575 -110.49031607 98.38858594 -104 91 C-103.34902344 90.2059375 -102.69804687 89.411875 -102.02734375 88.59375 C-81.82138688 64.72428319 -49.89669736 49.89131227 -19 47 C-12.33873483 46.54455112 -5.67161926 46.25276324 1 46 C0.93941406 45.1342334 0.87882813 44.2684668 0.81640625 43.37646484 C0.58894344 40.09268926 0.36585738 36.80867183 0.14550781 33.52441406 C0.05019161 32.1164211 -0.0467528 30.7085372 -0.14550781 29.30078125 C-1.47691865 10.28062647 -1.47691865 10.28062647 -1 1 C-0.67 0.67 -0.34 0.34 0 0 Z " fill="#169C67" transform="translate(383,43)"/>
<path d="M0 0 C2.30883758 0.00186929 4.61767555 0.00329078 6.92651367 0.00428772 C12.94988129 0.00807268 18.97322409 0.01786777 24.99658203 0.0289917 C31.16438461 0.03929313 37.33219127 0.04380389 43.5 0.04882812 C55.56251079 0.05949437 67.62500332 0.07652138 79.6875 0.09765625 C78.86502075 3.93847656 78.86502075 3.93847656 77.26733398 5.37109375 C76.35963257 5.91636719 76.35963257 5.91636719 75.43359375 6.47265625 C74.41048096 7.1054248 74.41048096 7.1054248 73.36669922 7.75097656 C72.62693848 8.19538086 71.88717773 8.63978516 71.125 9.09765625 C64.92783155 12.96380386 58.91124236 16.96997598 53.0625 21.34765625 C52.42497803 21.81816406 51.78745605 22.28867188 51.13061523 22.7734375 C33.695459 35.93861923 22.300019 55.36497783 13.6875 75.09765625 C12.87556183 75.1057431 12.06362366 75.11382996 11.2270813 75.12216187 C3.49186887 75.20082321 -4.24317392 75.28831414 -11.97817802 75.38518333 C-15.95270328 75.4346613 -19.92720796 75.48098558 -23.90185547 75.51953125 C-66.45501248 74.7372888 -66.45501248 74.7372888 -102.3125 95.09765625 C-102.81910156 95.82726562 -103.32570312 96.556875 -103.84765625 97.30859375 C-104.57275391 98.19417969 -104.57275391 98.19417969 -105.3125 99.09765625 C-106.3025 99.09765625 -107.2925 99.09765625 -108.3125 99.09765625 C-107.72271572 93.67948456 -106.79993194 88.50024062 -105.421875 83.22265625 C-105.23538391 82.49506104 -105.04889282 81.76746582 -104.85675049 81.01782227 C-104.4624114 79.48440432 -104.06562687 77.95161334 -103.66650391 76.41943359 C-103.07166158 74.13287315 -102.48640319 71.84402277 -101.90234375 69.5546875 C-95.4454319 44.44315801 -87.79865015 23.76443824 -64.625 9.41015625 C-44.89578223 -1.73134363 -21.87909955 -0.05256676 0 0 Z " fill="#179E69" transform="translate(233.3125,88.90234375)"/>
<path d="M0 0 C4.54074179 1.42358391 7.03973147 3.72132073 10.3125 7.125 C11.63701172 8.49011719 11.63701172 8.49011719 12.98828125 9.8828125 C13.65214844 10.58148438 14.31601562 11.28015625 15 12 C10.72899427 12 9.20818658 9.68440102 6 7 C3.88980834 6.32181881 3.88980834 6.32181881 2 6 C2.11398665 7.62580966 2.24155659 9.25067157 2.375 10.875 C2.47941406 12.23238281 2.47941406 12.23238281 2.5859375 13.6171875 C2.79568132 16.17941903 2.79568132 16.17941903 5 18 C5.11985383 20.82387319 5.13976156 23.55612352 5.0625 26.375 C5.02787687 27.90354709 4.99778248 29.43220481 4.97265625 30.9609375 C4.95468994 31.63946777 4.93672363 32.31799805 4.91821289 33.01708984 C5.00534657 35.12962627 5.48648482 36.95544392 6 39 C5.625 41.2890625 5.625 41.2890625 5 43.625 C3.97909513 46.89711451 3.97909513 46.89711451 5 50 C3.02 50.99 3.02 50.99 1 52 C0.67 51.01 0.34 50.02 0 49 C-0.99 49.495 -0.99 49.495 -2 50 C-3.93375001 50.20565731 -5.87246428 50.36603946 -7.8125 50.5 C-11.63439837 50.76587119 -15.25105794 51.2283377 -19 52 C-20.58145574 52.16495316 -22.1650369 52.31059936 -23.75 52.4375 C-30.27671615 53.07661464 -36.2092459 53.85845453 -41.9375 57.1875 C-46.63017509 59.75662111 -50.90181721 58.96113282 -56 58 C-56.36158203 58.92619141 -56.36158203 58.92619141 -56.73046875 59.87109375 C-58.30126069 62.50519101 -59.48665821 62.96540848 -62.3125 64.0625 C-64.98739067 65.15131767 -67.32547322 66.19528393 -69.8125 67.6875 C-71.91267724 68.94760634 -73.60698166 69.55684846 -76 70 C-75.67 70.66 -75.34 71.32 -75 72 C-81.5 75 -81.5 75 -86 75 C-64.31971226 52.04907268 -28.79191485 47.12870664 1 46 C0.93941406 45.1342334 0.87882812 44.2684668 0.81640625 43.37646484 C0.58894344 40.09268926 0.36585738 36.80867183 0.14550781 33.52441406 C0.05019161 32.1164211 -0.0467528 30.7085372 -0.14550781 29.30078125 C-1.47691865 10.28062647 -1.47691865 10.28062647 -1 1 C-0.67 0.67 -0.34 0.34 0 0 Z " fill="#2AB56C" transform="translate(383,43)"/>
<path d="M0 0 C1.98 0.66 3.96 1.32 6 2 C6 2.66 6 3.32 6 4 C7.0828125 4.4021875 7.0828125 4.4021875 8.1875 4.8125 C10.99766383 5.99901362 13.48416557 7.27485639 16 9 C16 9.66 16 10.32 16 11 C16.66 11 17.32 11 18 11 C18 11.99 18 12.98 18 14 C18.99 14.33 19.98 14.66 21 15 C21.99 16.485 21.99 16.485 23 18 C25.14193739 18.87348284 25.14193739 18.87348284 27.625 19.4375 C32.47716754 20.76338299 36.57406261 22.6231077 41 25 C41 25.66 41 26.32 41 27 C41.99 26.67 42.98 26.34 44 26 C46.625 26.8125 46.625 26.8125 49 28 C49.495 28.99 49.495 28.99 50 30 C59.77526228 33.88408711 70.6435676 33.68584044 81 34 C81 33.34 81 32.68 81 32 C82.216875 31.525625 83.43375 31.05125 84.6875 30.5625 C85.37199219 30.29566406 86.05648437 30.02882813 86.76171875 29.75390625 C89 29 89 29 91.3671875 28.53125 C95.60455247 27.67623274 99.64749276 26.19959213 103.74609375 24.83984375 C107 24 107 24 110.11328125 24.0390625 C113.45347546 23.99386366 114.95687768 23.20487223 117.75 21.4375 C120.046875 19.99609375 120.046875 19.99609375 122 19 C122.66 19.33 123.32 19.66 124 20 C101.54025676 33.7557394 77.01626812 39.50275658 50.98828125 33.5390625 C30.21634623 28.31594538 14.42852907 16.49455441 0 1 C0 0.67 0 0.34 0 0 Z " fill="#85D5AF" transform="translate(132,391)"/>
<path d="M0 0 C0.66 0.33 1.32 0.66 2 1 C-0.3385196 4.50777939 -2.26413448 5.20989777 -6 7 C-8.07808677 9.07808677 -8.5305555 10.15929047 -9.4375 12.875 C-10.56974725 16.05908616 -11.90529677 18.33401407 -14 21 C-14.12375 21.680625 -14.2475 22.36125 -14.375 23.0625 C-15.3089015 25.95759466 -17.44268226 26.50303352 -20 28 C-21.32793606 30.06700655 -21.32793606 30.06700655 -22 32 C-22.66 32 -23.32 32 -24 32 C-24.04898438 32.61488281 -24.09796875 33.22976562 -24.1484375 33.86328125 C-24.22320312 34.67152344 -24.29796875 35.47976562 -24.375 36.3125 C-24.44460937 37.11300781 -24.51421875 37.91351563 -24.5859375 38.73828125 C-25 41 -25 41 -27 44 C-27.39731871 45.75758347 -27.72415257 47.53180631 -28 49.3125 C-28.67845344 53.37245153 -29.53785797 57.1357675 -31 61 C-30.01 61.33 -29.02 61.66 -28 62 C-29.98 65.96 -31.96 69.92 -34 74 C-34.66 74 -35.32 74 -36 74 C-36.33 75.65 -36.66 77.3 -37 79 C-35.6696875 78.01 -35.6696875 78.01 -34.3125 77 C-31.01888014 75.01139933 -29.71748127 74.56264926 -26 75 C-27.0209375 75.99 -27.0209375 75.99 -28.0625 77 C-31.05148481 79.95492231 -33.69410542 83.17310189 -36.3515625 86.42578125 C-38 88 -38 88 -41 88 C-40.41021572 82.58182831 -39.48743194 77.40258437 -38.109375 72.125 C-37.92288391 71.39740479 -37.73639282 70.66980957 -37.54425049 69.92016602 C-37.1499114 68.38674807 -36.75312687 66.85395709 -36.35400391 65.32177734 C-35.75916158 63.0352169 -35.17390319 60.74636652 -34.58984375 58.45703125 C-28.45639513 34.60348027 -21.56879013 14.37919342 0 0 Z " fill="#8BD8B0" transform="translate(166,100)"/>
<path d="M0 0 C2.30883758 0.00186929 4.61767555 0.00329078 6.92651367 0.00428772 C12.94988129 0.00807268 18.97322409 0.01786777 24.99658203 0.0289917 C31.16438461 0.03929313 37.33219127 0.04380389 43.5 0.04882812 C55.56251079 0.05949437 67.62500332 0.07652138 79.6875 0.09765625 C78.87890625 3.92855835 78.87890625 3.92855835 77.15625 5.45043945 C76.5065625 5.84577881 75.856875 6.24111816 75.1875 6.6484375 C74.46876709 7.09662842 73.75003418 7.54481934 73.00952148 8.0065918 C71.86012085 8.7013562 71.86012085 8.7013562 70.6875 9.41015625 C69.13471935 10.37831101 67.58392023 11.34965139 66.03515625 12.32421875 C65.28637207 12.79504883 64.53758789 13.26587891 63.76611328 13.75097656 C59.87125509 16.27435427 56.24720302 19.12616627 52.6875 22.09765625 C52.0275 21.76765625 51.3675 21.43765625 50.6875 21.09765625 C54.3125 14.34765625 54.3125 14.34765625 57.6875 12.09765625 C58.6775 11.87078125 59.6675 11.64390625 60.6875 11.41015625 C64.39470664 10.44622311 67.23977349 8.5974782 70.4375 6.515625 C71.42234375 5.87778076 72.4071875 5.23993652 73.421875 4.58276367 C74.54335938 3.8476355 74.54335938 3.8476355 75.6875 3.09765625 C61.02321655 3.07429735 46.35893557 3.05666236 31.6946373 3.04584408 C24.88577401 3.04068749 18.07692228 3.03365689 11.26806641 3.0222168 C4.69990311 3.01118637 -1.86825131 3.00537542 -8.43642426 3.00277901 C-10.94509826 3.00092815 -13.45377159 2.99731401 -15.96244049 2.99192619 C-19.4700921 2.98469098 -22.97769372 2.98366637 -26.48535156 2.98413086 C-28.04873009 2.97873795 -28.04873009 2.97873795 -29.64369202 2.97323608 C-31.07813911 2.97529808 -31.07813911 2.97529808 -32.54156494 2.97740173 C-33.78598547 2.97601904 -33.78598547 2.97601904 -35.05554581 2.97460842 C-37.2672494 3.09518921 -39.18962254 3.48332248 -41.3125 4.09765625 C-40.9825 4.75765625 -40.6525 5.41765625 -40.3125 6.09765625 C-44.2938783 7.42478235 -48.16295227 7.16681538 -52.3125 7.09765625 C-52.3125 7.75765625 -52.3125 8.41765625 -52.3125 9.09765625 C-53.240625 9.05640625 -54.16875 9.01515625 -55.125 8.97265625 C-58.47059719 8.82629286 -58.47059719 8.82629286 -61.3125 11.09765625 C-63.5 10.72265625 -63.5 10.72265625 -65.3125 10.09765625 C-45.0785928 -1.51898694 -22.53892021 -0.05415205 0 0 Z " fill="#9BDEC2" transform="translate(233.3125,88.90234375)"/>
<path d="M0 0 C3.74102616 1.28330419 5.5628301 3.61688724 7.9375 6.6875 C8.97197266 8.02361328 8.97197266 8.02361328 10.02734375 9.38671875 C10.67832031 10.24910156 11.32929687 11.11148438 12 12 C12.53753906 12.70769531 13.07507813 13.41539062 13.62890625 14.14453125 C17 18.70655271 17 18.70655271 17 21 C16.01 21 15.02 21 14 21 C14 20.34 14 19.68 14 19 C13.01 19 12.02 19 11 19 C9.375 17.9375 9.375 17.9375 8 16 C7.3125 12.3125 7.3125 12.3125 7 9 C3.04168683 7.76621933 3.04168683 7.76621933 -1 7 C-2.76913958 8.0153062 -2.76913958 8.0153062 -4 10 C-5.05041438 10.84851655 -6.11416021 11.68067566 -7.1875 12.5 C-8.5796875 13.7375 -8.5796875 13.7375 -10 15 C-10 15.99 -10 16.98 -10 18 C-10.88429687 18.07476562 -11.76859375 18.14953125 -12.6796875 18.2265625 C-16.64165248 19.14946728 -18.22559369 20.56648417 -21.125 23.375 C-26.58990276 28.60155809 -31.64493912 33.07873712 -39.25 34.6875 C-44.73991805 36.60897132 -48.64055823 40.22824958 -53 44 C-53.66 43.67 -54.32 43.34 -55 43 C-39.77670426 30.53214033 -39.77670426 30.53214033 -32.1875 24.75 C-28.231608 21.73320659 -24.3367863 18.66687123 -20.5 15.5 C-16.36761784 12.09184977 -12.17907566 8.7703299 -7.9375 5.5 C-7.37675781 5.06623047 -6.81601563 4.63246094 -6.23828125 4.18554688 C-2.24785786 1.12392893 -2.24785786 1.12392893 0 0 Z " fill="#37B672" transform="translate(114,237)"/>
<path d="M0 0 C0.33 0 0.66 0 1 0 C1.0543965 2.37531394 1.09385864 4.74935883 1.125 7.125 C1.14175781 7.79015625 1.15851563 8.4553125 1.17578125 9.140625 C1.2188111 13.52966943 0.47733253 16.89822969 -1 21 C-1.20212894 23.15009621 -1.20212894 23.15009621 -1.0625 25.125 C-1.01394677 28.13530045 -1.06738624 30.20215873 -2 33 C-0.68 33 0.64 33 2 33 C1.71423809 37.7150715 -0.48062849 39.90668641 -3.51171875 43.234375 C-5.50845753 45.60320946 -6.69501642 48.20360662 -8 51 C-9.5 53.375 -9.5 53.375 -11 55 C-11.99 55 -12.98 55 -14 55 C-13.30385297 49.02746794 -11.88245163 43.37637186 -10.3125 37.578125 C-10.04993408 36.59632263 -9.78736816 35.61452026 -9.5168457 34.60296631 C-8.68168821 31.48427974 -7.84081145 28.36716638 -7 25.25 C-6.43454387 23.13941718 -5.86943605 21.02874101 -5.3046875 18.91796875 C-4.76593421 16.90877123 -4.22688213 14.8996538 -3.6875 12.890625 C-3.43331299 11.94374817 -3.17912598 10.99687134 -2.91723633 10.02130127 C-2.68029053 9.14318787 -2.44334473 8.26507446 -2.19921875 7.36035156 C-1.99127686 6.58870667 -1.78333496 5.81706177 -1.5690918 5.02203369 C-1.09394809 3.3338059 -0.55460568 1.66381704 0 0 Z M-4 34 C-3 36 -3 36 -3 36 Z " fill="#167863" transform="translate(248,200)"/>
<path d="M0 0 C0.33 0.66 0.66 1.32 1 2 C0.67 2.66 0.34 3.32 0 4 C0.66 4.33 1.32 4.66 2 5 C1.4289111 6.42164683 0.84249029 7.83713855 0.25 9.25 C-0.07484375 10.03890625 -0.3996875 10.8278125 -0.734375 11.640625 C-2 14 -2 14 -4.01171875 15.90234375 C-6.52449174 18.55334393 -7.11028723 20.80456463 -8.0625 24.3125 C-10.14726287 31.61731364 -10.14726287 31.61731364 -11.5625 34.75 C-13.06299309 38.14241915 -14.22181645 41.55309331 -15.3515625 45.08203125 C-16 47 -16 47 -17 49 C-17.66 49 -18.32 49 -19 49 C-19 49.66 -19 50.32 -19 51 C-19.66 51 -20.32 51 -21 51 C-21.33 52.98 -21.66 54.96 -22 57 C-23.01375079 53.858079 -22.96577432 51.94840913 -22.03125 48.796875 C-21.79365967 47.98959961 -21.55606934 47.18232422 -21.3112793 46.35058594 C-21.04355713 45.49239258 -20.77583496 44.63419922 -20.5 43.75 C-20.22518799 42.85829102 -19.95037598 41.96658203 -19.66723633 41.04785156 C-15.58425416 28.15809889 -9.75284199 9.75284199 0 0 Z " fill="#1E8266" transform="translate(272,143)"/>
<path d="M0 0 C1 2 1 2 0.375 5 C-1.34876658 8.76094527 -2.27383219 8.56034426 -6 10 C-9.48597586 13.11767866 -11.70864863 15.98027021 -13 20.5 C-15.101744 27.85610398 -21.90395806 33.68941224 -28.4375 37.375 C-33.53577118 40.60805002 -37.31906823 44.62672824 -40 50 C-40.99 50.495 -40.99 50.495 -42 51 C-42.268125 51.7425 -42.53625 52.485 -42.8125 53.25 C-44.27005014 56.62537927 -46.3527632 58.48851893 -49 61 C-49.33 61.66 -49.66 62.32 -50 63 C-52.21484375 63.44921875 -52.21484375 63.44921875 -54.9375 63.6875 C-55.83339844 63.77386719 -56.72929687 63.86023438 -57.65234375 63.94921875 C-60 64 -60 64 -62 63 C-61.67 62.34 -61.34 61.68 -61 61 C-60.41750488 61.22526367 -59.83500977 61.45052734 -59.23486328 61.68261719 C-56.95984745 62.24799243 -56.95984745 62.24799243 -55.13623047 60.85644531 C-54.51119629 60.26959961 -53.88616211 59.68275391 -53.2421875 59.078125 C-52.54577148 58.42779297 -51.84935547 57.77746094 -51.13183594 57.10742188 C-47.71346463 53.7281982 -44.39126347 50.27626653 -41.125 46.75 C-40.42882568 46.00347168 -39.73265137 45.25694336 -39.01538086 44.48779297 C-37.00579118 42.32928437 -35.00220188 40.1653597 -33 38 C-32.48550293 37.44666992 -31.97100586 36.89333984 -31.44091797 36.32324219 C-26.24406616 30.73171601 -21.30595939 24.99369296 -16.51171875 19.0546875 C-13.40269249 15.27357003 -10.20930658 11.57106966 -7 7.875 C-6.42338623 7.21081055 -5.84677246 6.54662109 -5.25268555 5.86230469 C-1.15970386 1.15970386 -1.15970386 1.15970386 0 0 Z " fill="#56B48A" transform="translate(245,264)"/>
<path d="M0 0 C4.54074179 1.42358391 7.03973147 3.72132073 10.3125 7.125 C11.19550781 8.03507812 12.07851563 8.94515625 12.98828125 9.8828125 C13.65214844 10.58148438 14.31601562 11.28015625 15 12 C10.72899427 12 9.20818658 9.68440102 6 7 C3.88980834 6.32181881 3.88980834 6.32181881 2 6 C2.24363281 7.71703125 2.24363281 7.71703125 2.4921875 9.46875 C3.22333335 16.06198043 3.14967039 22.67178778 3.13037109 29.29589844 C3.12494431 31.52285356 3.13037833 33.74961298 3.13671875 35.9765625 C3.13605909 37.39062545 3.13478027 38.80468827 3.1328125 40.21875 C3.13168457 41.49685547 3.13055664 42.77496094 3.12939453 44.09179688 C3 47 3 47 2 48 C-4.26377098 49.1276434 -10.53482801 49.30979884 -16.88476562 49.51757812 C-22.20387153 49.74474381 -26.85660947 50.64188309 -32 52 C-34.72061968 52.20992436 -37.263957 52.09771582 -40 52 C-36.37808842 49.86565925 -32.58793724 49.15268865 -28.5 48.4375 C-27.40667358 48.24353638 -27.40667358 48.24353638 -26.29125977 48.0456543 C-17.25208058 46.55800166 -8.14260193 46.27418351 1 46 C0.93941406 45.1342334 0.87882812 44.2684668 0.81640625 43.37646484 C0.58894344 40.09268926 0.36585738 36.80867183 0.14550781 33.52441406 C0.05019161 32.1164211 -0.0467528 30.7085372 -0.14550781 29.30078125 C-1.47691865 10.28062647 -1.47691865 10.28062647 -1 1 C-0.67 0.67 -0.34 0.34 0 0 Z " fill="#95DCB9" transform="translate(383,43)"/>
<path d="M0 0 C0.66 0 1.32 0 2 0 C1.30460534 4.58960475 -0.050373 7.45087033 -2 12 C-46.55 12.495 -46.55 12.495 -92 13 C-92 12.34 -92 11.68 -92 11 C-89.16796875 11.04882812 -89.16796875 11.04882812 -86.3359375 11.09765625 C-83.92255958 11.04693409 -83.92255958 11.04693409 -81.26928711 10.52905273 C-65.84912785 8.03368382 -49.86809134 8.9134025 -34.3125 9 C-29.45442943 9.02661783 -24.59639719 9.04655305 -19.73828125 9.0625 C-18.63309647 9.07079834 -17.52791168 9.07909668 -16.38923645 9.08764648 C-15.36013657 9.09094971 -14.33103668 9.09425293 -13.27075195 9.09765625 C-11.92083916 9.10551147 -11.92083916 9.10551147 -10.5436554 9.11352539 C-7.93709767 8.99719262 -5.54081723 8.57814126 -3 8 C-2.5359375 6.576875 -2.5359375 6.576875 -2.0625 5.125 C-1 2 -1 2 0 0 Z " fill="#247A69" transform="translate(248,151)"/>
<path d="M0 0 C29.7 0 59.4 0 90 0 C87.14922979 2.85077021 84.81310578 5.01908165 81.5625 7.25 C80.82128906 7.77078125 80.08007812 8.2915625 79.31640625 8.828125 C76.67011172 10.1668912 74.92607371 10.22706745 72 10 C72.75 8.0625 72.75 8.0625 74 6 C76.125 5.25 76.125 5.25 78 5 C78.33 3.68 78.66 2.36 79 1 C77.38327393 1.24339111 77.38327393 1.24339111 75.73388672 1.49169922 C70.2445482 2.17363731 64.78232135 2.14334695 59.2578125 2.1328125 C58.13543182 2.13376923 57.01305115 2.13472595 55.85665894 2.13571167 C53.48484237 2.13639011 51.11302391 2.1345593 48.74121094 2.13037109 C45.17117967 2.12506859 41.60127713 2.13030139 38.03125 2.13671875 C25.31930089 2.14004179 12.68102784 1.91097549 0 1 C0 0.67 0 0.34 0 0 Z " fill="#16845D" transform="translate(220,91)"/>
<path d="M0 0 C1.65 0 3.3 0 5 0 C4.62444758 8.88920575 2.21076373 17.14626402 -0.25390625 25.6328125 C-0.67920829 27.12046344 -1.10375104 28.60833164 -1.52757263 30.09640503 C-2.63628897 33.98156387 -3.75518545 37.86371621 -4.87634277 41.74530029 C-6.02212071 45.71903592 -7.15808745 49.69557345 -8.29492188 53.671875 C-10.52044059 61.45066719 -12.75673892 69.22630591 -15 77 C-15.83276075 73.93286571 -16.02618968 71.66614559 -15.625 68.5 C-15.53476562 67.7471875 -15.44453125 66.994375 -15.3515625 66.21875 C-15 64 -15 64 -14.515625 62.15234375 C-13.516247 57.9806977 -13.19600464 53.66603945 -12.6953125 49.41015625 C-11.98453986 45.92417584 -10.94434605 43.93577003 -9 41 C-4.6261694 32.04070183 -2.09621542 22.63617293 0.44775391 13.046875 C1.53857756 9.0037868 2.76364753 5.00055516 4 1 C2.68 0.67 1.36 0.34 0 0 Z " fill="#74AFA3" transform="translate(337,183)"/>
<path d="M0 0 C0.66 0.33 1.32 0.66 2 1 C1.52167725 1.47308594 1.04335449 1.94617188 0.55053711 2.43359375 C-1.6565534 4.61964406 -3.85953633 6.80979129 -6.0625 9 C-6.81466797 9.74378906 -7.56683594 10.48757812 -8.34179688 11.25390625 C-18.42376756 20.81100949 -18.42376756 20.81100949 -24.30859375 33.02734375 C-25.23820936 35.67963686 -27.00794953 37.07909419 -29 39 C-28.86358623 41.21858253 -28.86358623 41.21858253 -28 43 C-29.485 42.505 -29.485 42.505 -31 42 C-34.5868415 44.47051729 -34.5868415 44.47051729 -37 48 C-39.31104818 49.05047644 -41.64583651 50.05007438 -44 51 C-44.99 51.495 -44.99 51.495 -46 52 C-44.47920927 48.49172085 -42.4004327 46.04728354 -39.8125 43.25 C-39.00425781 42.36828125 -38.19601563 41.4865625 -37.36328125 40.578125 C-36.58339844 39.72734375 -35.80351562 38.8765625 -35 38 C-33.82838939 36.67100886 -32.66126608 35.3380396 -31.5 34 C-28.14685621 30.15238339 -24.73823343 26.35690298 -21.31640625 22.5703125 C-19.796489 20.88379387 -18.28321724 19.19125741 -16.77734375 17.4921875 C-11.39672668 11.43780709 -5.78110145 5.6724795 0 0 Z " fill="#7FD3A8" transform="translate(292,212)"/>
<path d="M0 0 C4.99714675 3.02458882 9.100662 6.73553409 13.390625 10.6875 C16.53953648 13.47815209 19.85924043 15.95604987 23.28515625 18.39453125 C25 20 25 20 26 24 C23.03 26.64 20.06 29.28 17 32 C16.34 31.67 15.68 31.34 15 31 C15.56589844 30.51789063 16.13179688 30.03578125 16.71484375 29.5390625 C17.44832031 28.90742188 18.18179687 28.27578125 18.9375 27.625 C19.66839844 26.99851563 20.39929688 26.37203125 21.15234375 25.7265625 C23.08380906 24.12252286 23.08380906 24.12252286 24 22 C23.28972656 22.01160156 22.57945312 22.02320312 21.84765625 22.03515625 C20.92855469 22.04417969 20.00945312 22.05320312 19.0625 22.0625 C18.14597656 22.07410156 17.22945313 22.08570312 16.28515625 22.09765625 C14 22 14 22 13 21 C12.95936168 19.33382885 12.957279 17.66611905 13 16 C12.071875 15.690625 11.14375 15.38125 10.1875 15.0625 C8.125 14.375 6.0625 13.6875 4 13 C4.33 12.34 4.66 11.68 5 11 C4.34 10.67 3.68 10.34 3 10 C2.60955794 8.68225804 2.29044914 7.34332728 2 6 C1.34490497 3.99617991 0.68025637 1.99541868 0 0 Z " fill="#55C88A" transform="translate(453,104)"/>
<path d="M0 0 C0.66 0.33 1.32 0.66 2 1 C1.3915625 1.36609375 0.783125 1.7321875 0.15625 2.109375 C-12.4762605 9.91180796 -24.13695187 18.8847704 -35 29 C-36.32937633 30.15042183 -37.66257608 31.29644388 -39 32.4375 C-43.91224949 36.70552005 -48.44322882 41.35919001 -53 46 C-53 43 -53 43 -50.8125 40.66015625 C-48.93879746 38.92958376 -47.0637982 37.20041417 -45.1875 35.47265625 C-42.55826706 33.05091591 -42.55826706 33.05091591 -43 29 C-42.01 29 -41.02 29 -40 29 C-40 28.01 -40 27.02 -40 26 C-38.68 25.67 -37.36 25.34 -36 25 C-36 24.34 -36 23.68 -36 23 C-35.34 23 -34.68 23 -34 23 C-33.7525 22.360625 -33.505 21.72125 -33.25 21.0625 C-32 19 -32 19 -29.875 18.25 C-28.946875 18.12625 -28.946875 18.12625 -28 18 C-28 17.34 -28 16.68 -28 16 C-26.4221875 15.5359375 -26.4221875 15.5359375 -24.8125 15.0625 C-19.31950412 13.02950508 -14.79969286 9.53390539 -10.0703125 6.16796875 C-6.78520326 3.84833055 -3.61081338 1.76528654 0 0 Z " fill="#76BBA5" transform="translate(316,178)"/>
<path d="M0 0 C3.74102616 1.28330419 5.5628301 3.61688724 7.9375 6.6875 C8.97197266 8.02361328 8.97197266 8.02361328 10.02734375 9.38671875 C10.67832031 10.24910156 11.32929687 11.11148438 12 12 C12.53753906 12.70769531 13.07507813 13.41539062 13.62890625 14.14453125 C17 18.70655271 17 18.70655271 17 21 C16.01 21 15.02 21 14 21 C14 20.34 14 19.68 14 19 C13.01 19 12.02 19 11 19 C7.33262016 16.26744247 6.90321079 12.61284318 5.84375 8.375 C4.9290168 5.80019543 4.26254971 4.53682622 2 3 C-1.96123356 3.10979965 -4.68852898 5.83363414 -7.6875 8.1875 C-8.24493896 8.62312256 -8.80237793 9.05874512 -9.37670898 9.50756836 C-14.91570143 13.86628103 -20.32894288 18.37934325 -25.75268555 22.87988281 C-30.8386156 27.08583243 -36.01614211 31.10548327 -41.328125 35.0234375 C-45.27518262 37.94333685 -49.13897515 40.96773048 -53 44 C-53.66 43.67 -54.32 43.34 -55 43 C-39.77670426 30.53214033 -39.77670426 30.53214033 -32.1875 24.75 C-28.231608 21.73320659 -24.3367863 18.66687123 -20.5 15.5 C-16.36761784 12.09184977 -12.17907566 8.7703299 -7.9375 5.5 C-7.37675781 5.06623047 -6.81601563 4.63246094 -6.23828125 4.18554688 C-2.24785786 1.12392893 -2.24785786 1.12392893 0 0 Z " fill="#C4F2DD" transform="translate(114,237)"/>
<path d="M0 0 C28.71 0 57.42 0 87 0 C84.70544105 4.5891179 82.28667734 5.88097775 78 8.25 C71.50923118 11.97206123 65.6757331 16.09883753 60 21 C59.34 20.67 58.68 20.34 58 20 C61.625 13.25 61.625 13.25 65 11 C65.99 10.773125 66.98 10.54625 68 10.3125 C73.47281124 8.69919414 73.47281124 8.69919414 83 2 C41.915 1.505 41.915 1.505 0 1 C0 0.67 0 0.34 0 0 Z " fill="#57A289" transform="translate(226,90)"/>
<path d="M0 0 C1.72314789 4.14472349 0.19927953 7.89121339 -0.984375 11.984375 C-1.20063538 12.75879944 -1.41689575 13.53322388 -1.63970947 14.33111572 C-2.09929139 15.96975957 -2.56358263 17.60708886 -3.03222656 19.24316406 C-3.74268213 21.7244422 -4.43902645 24.20932804 -5.1328125 26.6953125 C-5.58250315 28.29190073 -6.03299888 29.88826246 -6.484375 31.484375 C-6.69076599 32.21799255 -6.89715698 32.95161011 -7.10980225 33.7074585 C-8.50832545 38.57477392 -10.17120017 43.27704132 -12 48 C-12.33 48 -12.66 48 -13 48 C-13 46.35 -13 44.7 -13 43 C-13.66 43 -14.32 43 -15 43 C-14.39816251 40.97954558 -13.72693904 38.97888961 -13 37 C-12.01 36.505 -12.01 36.505 -11 36 C-10.60582748 33.84512128 -10.60582748 33.84512128 -10.5 31.3125 C-10.18050649 27.23460104 -9.35021636 23.87062024 -8 20 C-8 19.113125 -8 18.22625 -8 17.3125 C-8 15 -8 15 -6 12 C-5.71125 10.88625 -5.4225 9.7725 -5.125 8.625 C-3.97182951 4.90922841 -2.59134474 2.85047922 0 0 Z " fill="#2C9B6C" transform="translate(305,315)"/>
<path d="M0 0 C0 2.31 0 4.62 0 7 C-0.66 7 -1.32 7 -2 7 C-2.495 4.525 -2.495 4.525 -3 2 C-23.4114711 1.55999224 -41.22059771 4.74139289 -59.5234375 13.9609375 C-60.34070313 14.30382812 -61.15796875 14.64671875 -62 15 C-62.66 14.67 -63.32 14.34 -64 14 C-62.35 13.34 -60.7 12.68 -59 12 C-59 11.01 -59 10.02 -59 9 C-57.35 8.67 -55.7 8.34 -54 8 C-54 7.34 -54 6.68 -54 6 C-35.92363526 -0.28844011 -19.02334343 -0.14453738 0 0 Z " fill="#85C0AF" transform="translate(382,163)"/>
<path d="M0 0 C-1.98 0.99 -1.98 0.99 -4 2 C-4 2.99 -4 3.98 -4 5 C-8.08443115 6.53166168 -11.79455657 5.63081652 -16 5 C-16.24105469 5.61746094 -16.48210937 6.23492187 -16.73046875 6.87109375 C-18.30126069 9.50519101 -19.48665821 9.96540848 -22.3125 11.0625 C-24.98739067 12.15131767 -27.32547322 13.19528393 -29.8125 14.6875 C-31.91267724 15.94760634 -33.60698166 16.55684846 -36 17 C-35.67 17.66 -35.34 18.32 -35 19 C-41.5 22 -41.5 22 -46 22 C-37.7215956 13.23641439 -12.60008892 -4.02308826 0 0 Z " fill="#5BB08B" transform="translate(343,96)"/>
<path d="M0 0 C0.33 0 0.66 0 1 0 C1.31732638 7.77449624 0.11855299 15.32992235 -1 23 C-0.401875 22.67 0.19625 22.34 0.8125 22 C3 21 3 21 6 21 C6 20.01 6 19.02 6 18 C6.66 18 7.32 18 8 18 C8 17.34 8 16.68 8 16 C9.98 16 11.96 16 14 16 C14 14.68 14 13.36 14 12 C16.76264289 11.40267181 19.16032769 11 22 11 C16.54489713 16.09799681 10.9660064 20.93271244 5.0625 25.5 C4.22972534 26.1494458 4.22972534 26.1494458 3.38012695 26.81201172 C0.92074433 28.6920296 -1.038583 30.012861 -4 31 C-5.22093421 27.33719737 -4.70587062 25.36579043 -4.00390625 21.58203125 C-3.77509766 20.32841797 -3.54628906 19.07480469 -3.31054688 17.78320312 C-3.06135855 16.45960517 -2.8120075 15.13603783 -2.5625 13.8125 C-2.31637473 12.47733919 -2.07092396 11.14205384 -1.82617188 9.80664062 C-1.2240832 6.53647272 -0.61509331 3.26774249 0 0 Z " fill="#54A887" transform="translate(377,182)"/>
<path d="M0 0 C0.61875 0.2475 1.2375 0.495 1.875 0.75 C2.865 0.75 3.855 0.75 4.875 0.75 C-0.77434599 5.43786482 -6.4411437 10.10403406 -12.125 14.75 C-12.82818359 15.32508301 -13.53136719 15.90016602 -14.25585938 16.49267578 C-16.16353039 18.04578695 -18.07973671 19.5875006 -20 21.125 C-20.57572754 21.59462158 -21.15145508 22.06424316 -21.74462891 22.5480957 C-25.77872482 25.75 -25.77872482 25.75 -29.125 25.75 C-28.465 24.43 -27.805 23.11 -27.125 21.75 C-25.805 21.75 -24.485 21.75 -23.125 21.75 C-23.455 20.76 -23.785 19.77 -24.125 18.75 C-23.465 18.75 -22.805 18.75 -22.125 18.75 C-22.125 18.09 -22.125 17.43 -22.125 16.75 C-21.135 16.75 -20.145 16.75 -19.125 16.75 C-18.795 15.76 -18.465 14.77 -18.125 13.75 C-17.465 13.75 -16.805 13.75 -16.125 13.75 C-15.856875 13.151875 -15.58875 12.55375 -15.3125 11.9375 C-14.11512525 9.73180967 -13.08021016 8.31416813 -11.125 6.75 C-10.135 6.75 -9.145 6.75 -8.125 6.75 C-7.795 5.76 -7.465 4.77 -7.125 3.75 C-2.91800292 -0.34329446 -2.91800292 -0.34329446 0 0 Z " fill="#218C68" transform="translate(440.125,155.25)"/>
<path d="M0 0 C1.9480957 0.00483398 1.9480957 0.00483398 3.93554688 0.00976562 C5.30729233 0.01812094 6.67903712 0.02658588 8.05078125 0.03515625 C9.4342432 0.0401729 10.81770688 0.04473552 12.20117188 0.04882812 C15.5885852 0.06063096 18.97591158 0.07709606 22.36328125 0.09765625 C20.64317203 3.84928644 18.71046514 5.68558763 15.42578125 8.22265625 C14.55050781 8.90585938 13.67523438 9.5890625 12.7734375 10.29296875 C8.98451642 13.1300539 7.10549667 14.35399222 2.36328125 14.09765625 C2.36328125 13.43765625 2.36328125 12.77765625 2.36328125 12.09765625 C3.78640625 11.97390625 3.78640625 11.97390625 5.23828125 11.84765625 C8.40535887 11.42733722 8.40535887 11.42733722 9.80078125 9.28515625 C10.44144286 6.79369443 10.06121361 5.52768353 9.36328125 3.09765625 C3.72500467 2.37337171 -1.00845684 2.13673348 -6.63671875 3.09765625 C-7.62671875 2.43765625 -8.61671875 1.77765625 -9.63671875 1.09765625 C-6.21920222 -0.04151593 -3.60183938 -0.01572856 0 0 Z " fill="#167E60" transform="translate(454.63671875,125.90234375)"/>
<path d="M0 0 C0.33 1.32 0.66 2.64 1 4 C0.29875 4.37125 -0.4025 4.7425 -1.125 5.125 C-5.87074845 8.22005334 -9.59047003 11.42762991 -11.625 16.8125 C-12.07875 17.864375 -12.5325 18.91625 -13 20 C-15.0859375 20.69921875 -15.0859375 20.69921875 -17 21 C-17.28875 22.19625 -17.5775 23.3925 -17.875 24.625 C-18.76354876 28.14790811 -19.67707148 31.60999567 -21 35 C-21.99 35.495 -21.99 35.495 -23 36 C-22.67213373 33.9990965 -22.33737157 31.99932277 -22 30 C-21.81824219 28.85144531 -21.63648438 27.70289063 -21.44921875 26.51953125 C-18.92468826 14.23348286 -13.00549797 8.66237577 -2.6171875 1.69921875 C-1.75351562 1.13847656 -0.88984375 0.57773438 0 0 Z " fill="#157962" transform="translate(307,202)"/>
<path d="M0 0 C5.74211062 2.02662728 8.51266095 3.97412901 12 9 C12.33333333 10.33333333 12.66666667 11.66666667 13 13 C15.13714946 15.75579798 17.30312241 18.32715267 19.8125 20.75 C21 22 21 22 21 24 C21.66 24 22.32 24 23 24 C23.33 26.64 23.66 29.28 24 32 C19.13666162 27.50211479 15.35842573 22.32043019 11.4375 17 C10.12439198 15.22865194 8.81060999 13.45780327 7.49609375 11.6875 C6.88878418 10.86636719 6.28147461 10.04523438 5.65576172 9.19921875 C4.32568082 7.43257635 2.93898734 5.70862484 1.53515625 4 C0 2 0 2 0 0 Z " fill="#4C9F87" transform="translate(81,323)"/>
<path d="M0 0 C3.33727786 1.17255709 5.77437487 2.18868404 8 5 C8 5.66 8 6.32 8 7 C8.99 7 9.98 7 11 7 C14.22265625 12.17578125 14.22265625 12.17578125 15 14 C14.67 14.99 14.34 15.98 14 17 C15.32 17.33 16.64 17.66 18 18 C18 18.99 18 19.98 18 21 C19.32 21.33 20.64 21.66 22 22 C22.66 25.3 23.32 28.6 24 32 C19.8531229 28.08097329 16.49416009 23.84558623 13.125 19.25 C12.07107293 17.82495813 11.01638905 16.40047565 9.9609375 14.9765625 C9.45530273 14.29368164 8.94966797 13.61080078 8.42871094 12.90722656 C6.0617355 9.74748423 3.59559044 6.66789487 1.109375 3.6015625 C0 2 0 2 0 0 Z " fill="#7EC9AB" transform="translate(57,291)"/>
<path d="M0 0 C-0.57648075 7.35012956 -2.71046164 14.01424576 -5 21 C-5.33 21 -5.66 21 -6 21 C-6.20413361 15.26157749 -6.27141454 10.39460953 -4 5 C-5.7015625 5.7115625 -5.7015625 5.7115625 -7.4375 6.4375 C-11.91298952 8.1348234 -16.24712186 8.68094105 -21 9 C-18.4594319 6.09275196 -15.60890116 4.55547795 -12.1875 2.8125 C-11.17042969 2.28269531 -10.15335937 1.75289062 -9.10546875 1.20703125 C-5.82530971 -0.06789849 -3.48468826 -0.23439607 0 0 Z " fill="#2A796C" transform="translate(341,184)"/>
<path d="M0 0 C0.66 0.33 1.32 0.66 2 1 C-0.1847753 2.27571484 -2.37261619 3.54560673 -4.5625 4.8125 C-5.17158203 5.16892578 -5.78066406 5.52535156 -6.40820312 5.89257812 C-13.35672068 9.89992423 -19.63032063 12.4176943 -27.625 13.1875 C-28.36234375 13.26935547 -29.0996875 13.35121094 -29.859375 13.43554688 C-33.58537054 13.83285285 -37.25295634 14.09626792 -41 14 C-37.84012968 10.97751535 -34.84210081 10.407224 -30.703125 9.60546875 C-26.4126428 8.64445034 -22.27998933 7.19867775 -18.11328125 5.8046875 C-15 5 -15 5 -11.90234375 5.04296875 C-8.5538862 4.99339535 -7.04977613 4.20908248 -4.25 2.4375 C-1.953125 0.99609375 -1.953125 0.99609375 0 0 Z " fill="#45B37C" transform="translate(254,410)"/>
<path d="M0 0 C1.38600739 4.44576965 0.17858172 7.9215138 -1.08984375 12.265625 C-1.31321915 13.05902283 -1.53659454 13.85242065 -1.76673889 14.66986084 C-2.48115712 17.1992804 -3.2091212 19.72456924 -3.9375 22.25 C-4.42472632 23.96589104 -4.91106514 25.68203436 -5.39648438 27.3984375 C-6.58738373 31.60195325 -7.79044493 35.80181619 -9 40 C-9.33 40 -9.66 40 -10 40 C-10.48506832 31.10708083 -8.67625695 22.69059407 -7 14 C-6.01 13.67 -5.02 13.34 -4 13 C-3.896875 11.96875 -3.79375 10.9375 -3.6875 9.875 C-3.00872203 6.04916055 -1.88841205 3.36629975 0 0 Z " fill="#65AE94" transform="translate(316,275)"/>
<path d="M0 0 C0.33 0 0.66 0 1 0 C1.33 2.31 1.66 4.62 2 7 C1.34 7 0.68 7 0 7 C0.020625 8.0725 0.04125 9.145 0.0625 10.25 C0.0142016 13.14790424 -0.13155885 15.28612141 -1 18 C-0.278125 17.505 0.44375 17.01 1.1875 16.5 C4.14848659 14.92080715 5.71253029 14.71821688 9 15 C8.319375 15.66 7.63875 16.32 6.9375 17 C3.94851519 19.95492231 1.30589458 23.17310189 -1.3515625 26.42578125 C-3 28 -3 28 -6 28 C-5.35521919 21.65594974 -4.03753669 15.6670882 -2.4375 9.5 C-2.20353516 8.5821875 -1.96957031 7.664375 -1.72851562 6.71875 C-1.15666285 4.47802077 -0.58041707 2.23852312 0 0 Z " fill="#60998D" transform="translate(131,160)"/>
<path d="M0 0 C0.33 0.66 0.66 1.32 1 2 C0.67 2.66 0.34 3.32 0 4 C0.66 4.33 1.32 4.66 2 5 C-0.08350385 10.18659469 -1.85503676 14.14089629 -6 18 C-6.7872678 20.1381966 -6.7872678 20.1381966 -7 22 C-7.66 22 -8.32 22 -9 22 C-9.33 22.99 -9.66 23.98 -10 25 C-10.66 25 -11.32 25 -12 25 C-12.99 27.475 -12.99 27.475 -14 30 C-14.33 29.34 -14.66 28.68 -15 28 C-14.38256836 26.17163086 -14.38256836 26.17163086 -13.33984375 23.96484375 C-12.96077881 23.15893799 -12.58171387 22.35303223 -12.19116211 21.52270508 C-11.57059937 20.24302856 -11.57059937 20.24302856 -10.9375 18.9375 C-10.5257251 18.07729248 -10.1139502 17.21708496 -9.68969727 16.33081055 C-6.88872383 10.57540812 -3.90270388 5.09647212 0 0 Z " fill="#4BA589" transform="translate(272,143)"/>
<path d="M0 0 C0.33 0.99 0.66 1.98 1 3 C2.03125 2.79375 3.0625 2.5875 4.125 2.375 C8.25133159 1.8316752 11.90156198 2.33896161 16 3 C21.89021031 3.94167525 27.46796586 4.76601707 33 2 C32.67 2.99 32.34 3.98 32 5 C31.01 5 30.02 5 29 5 C29 5.66 29 6.32 29 7 C7.14282195 7.61730524 7.14282195 7.61730524 -2 4 C-2.66 3.34 -3.32 2.68 -4 2 C-2.68 1.34 -1.36 0.68 0 0 Z " fill="#33B173" transform="translate(184,418)"/>
<path d="M0 0 C4.49948387 1.64156994 6.97532891 3.65434207 10.3125 7.125 C11.19550781 8.03507812 12.07851563 8.94515625 12.98828125 9.8828125 C13.65214844 10.58148438 14.31601562 11.28015625 15 12 C10.72899427 12 9.20818658 9.68440102 6 7 C3.88980834 6.32181881 3.88980834 6.32181881 2 6 C2.16371094 7.14339844 2.32742188 8.28679688 2.49609375 9.46484375 C3.31152649 16.80373844 3.10563484 24.18969863 3.0625 31.5625 C3.0574746 33.06314955 3.05291353 34.56380072 3.04882812 36.06445312 C3.03790576 39.70966977 3.02069856 43.35482422 3 47 C2.67 47 2.34 47 2 47 C1.71058645 42.23545243 1.42597514 37.47064899 1.14550781 32.70556641 C1.0497712 31.08993084 0.95280001 29.47436787 0.85449219 27.85888672 C0.28967706 18.56249083 -0.1651835 9.31910248 0 0 Z " fill="#52B780" transform="translate(383,43)"/>
<path d="M0 0 C1.98 0.66 3.96 1.32 6 2 C6 2.66 6 3.32 6 4 C7.0828125 4.4021875 7.0828125 4.4021875 8.1875 4.8125 C10.99766383 5.99901362 13.48416557 7.27485639 16 9 C16 9.66 16 10.32 16 11 C16.66 11 17.32 11 18 11 C18 11.99 18 12.98 18 14 C18.99 14.33 19.98 14.66 21 15 C22.6875 18.0625 22.6875 18.0625 24 21 C19.47489939 19.5662227 16.49464379 17.03192555 13.125 13.8125 C12.60196289 13.32217285 12.07892578 12.8318457 11.54003906 12.32666016 C10.0178257 10.89340731 8.50669699 9.44953931 7 8 C5.84371094 6.88818359 5.84371094 6.88818359 4.6640625 5.75390625 C3.07984814 4.1987897 1.53447109 2.60421978 0 1 C0 0.67 0 0.34 0 0 Z " fill="#5AB990" transform="translate(132,391)"/>
<path d="M0 0 C0 3 0 3 -1.6796875 4.90234375 C-2.40414062 5.57394531 -3.12859375 6.24554688 -3.875 6.9375 C-6.64529015 9.51416772 -8.37230984 11.60531287 -10 15 C-10.99 15.495 -10.99 15.495 -12 16 C-12.268125 16.7425 -12.53625 17.485 -12.8125 18.25 C-14.27005014 21.62537927 -16.3527632 23.48851893 -19 26 C-19.33 26.66 -19.66 27.32 -20 28 C-22.21484375 28.44921875 -22.21484375 28.44921875 -24.9375 28.6875 C-26.28134766 28.81705078 -26.28134766 28.81705078 -27.65234375 28.94921875 C-30 29 -30 29 -32 28 C-31.67 27.34 -31.34 26.68 -31 26 C-30.41694092 26.22461914 -29.83388184 26.44923828 -29.2331543 26.68066406 C-26.9640024 27.24666233 -26.9640024 27.24666233 -25.15161133 25.87402344 C-24.5305249 25.29168945 -23.90943848 24.70935547 -23.26953125 24.109375 C-22.57424316 23.46033203 -21.87895508 22.81128906 -21.16259766 22.14257812 C-17.5799829 18.59312824 -14.10999274 14.9536607 -10.6875 11.25 C-9.29590562 9.7548986 -7.90399132 8.26009488 -6.51171875 6.765625 C-5.90803467 6.11368164 -5.30435059 5.46173828 -4.68237305 4.79003906 C-3.15112303 3.16079438 -1.59070866 1.5709954 0 0 Z " fill="#74BDA0" transform="translate(215,299)"/>
<path d="M0 0 C4.31299312 2.73304882 7.96109913 5.66444979 11.6875 9.1875 C16.58956651 13.78071381 21.6473504 18.05291098 26.91796875 22.22265625 C29 24 29 24 30 26 C28.5164999 25.57742724 27.03823576 25.13643678 25.5625 24.6875 C24.73878906 24.44386719 23.91507812 24.20023438 23.06640625 23.94921875 C22.38449219 23.63597656 21.70257813 23.32273437 21 23 C20.67 22.01 20.34 21.02 20 20 C19.34 19.67 18.68 19.34 18 19 C18 18.34 18 17.68 18 17 C17.01 17 16.02 17 15 17 C14.79375 16.360625 14.5875 15.72125 14.375 15.0625 C13.10461791 12.65074923 13.10461791 12.65074923 9.875 12.25 C8.92625 12.1675 7.9775 12.085 7 12 C7 11.34 7 10.68 7 10 C6.34 10 5.68 10 5 10 C4.67 8.35 4.34 6.7 4 5 C3.01 4.67 2.02 4.34 1 4 C0.3125 1.9375 0.3125 1.9375 0 0 Z " fill="#83D6A8" transform="translate(423,78)"/>
<path d="M0 0 C0.34548714 6.33393082 -0.70657253 11.10261508 -3 17 C-2.01 17.33 -1.02 17.66 0 18 C-1.98 21.96 -3.96 25.92 -6 30 C-6.33 30 -6.66 30 -7 30 C-7.04241723 27.66705225 -7.04092937 25.33297433 -7 23 C-6.67 22.67 -6.34 22.34 -6 22 C-6.061875 20.1128125 -6.061875 20.1128125 -6.125 18.1875 C-6.2011829 12.27380217 -4.970446 6.56786578 -3 1 C-1 0 -1 0 0 0 Z " fill="#2FAA71" transform="translate(138,144)"/>
<path d="M0 0 C0.33 0 0.66 0 1 0 C1.87845067 14.99222485 1.87845067 14.99222485 -2.6875 20.81640625 C-5.56279927 25.60001425 -6.06074817 31.56303005 -7 37 C-7.66 37 -8.32 37 -9 37 C-8.36361844 29.08058502 -6.09610757 21.6102261 -3.9375 14 C-3.55611709 12.63946956 -3.17525327 11.27879351 -2.79492188 9.91796875 C-1.86926328 6.6102779 -0.93658374 3.30461624 0 0 Z " fill="#5EA092" transform="translate(248,200)"/>
<path d="M0 0 C3.94810333 2.18784788 7.07816087 4.73765433 10.375 7.8125 C14.51255293 11.63651712 18.69580527 15.36534667 23 19 C19.30839253 19 18.09705405 17.97085258 15 16 C13.73261154 15.264862 12.46167153 14.53581757 11.1875 13.8125 C10.135625 13.214375 9.08375 12.61625 8 12 C8 11.34 8 10.68 8 10 C6.68 9.67 5.36 9.34 4 9 C4 8.34 4 7.68 4 7 C3.34 7 2.68 7 2 7 C1.34 4.69 0.68 2.38 0 0 Z " fill="#77D1A1" transform="translate(400,58)"/>
<path d="M0 0 C2.97 0 5.94 0 9 0 C9 0.66 9 1.32 9 2 C10.65 2 12.3 2 14 2 C13.50130596 7.36891879 12.97772468 12.69235173 12 18 C11.34 18 10.68 18 10 18 C9.67 18.99 9.34 19.98 9 21 C7.39919849 16.99799622 8.70720308 13.95443764 10 10 C10.66 10 11.32 10 12 10 C12 7.69 12 5.38 12 3 C5.07 3 -1.86 3 -9 3 C-9 2.67 -9 2.34 -9 2 C-6.03 2 -3.06 2 0 2 C0 1.34 0 0.68 0 0 Z " fill="#419D7C" transform="translate(370,160)"/>
<path d="M0 0 C1.32 0.66 2.64 1.32 4 2 C3.21496094 2.68964844 2.42992187 3.37929687 1.62109375 4.08984375 C-4.60243421 9.63100208 -10.1882856 15.13822419 -15 22 C-15.99 20.68 -16.98 19.36 -18 18 C-17.071875 17.87625 -17.071875 17.87625 -16.125 17.75 C-13.85214021 17.19418495 -13.85214021 17.19418495 -12.8125 15.125 C-12.16535941 13.43247845 -11.57301136 11.71903407 -11 10 C-10.01 10 -9.02 10 -8 10 C-7.95875 9.4225 -7.9175 8.845 -7.875 8.25 C-6.56599744 4.88399342 -3.99062016 3.8691376 -1 2 C-0.67 1.34 -0.34 0.68 0 0 Z " fill="#4D9F81" transform="translate(280,110)"/>
<path d="M0 0 C0.66 0 1.32 0 2 0 C1.16425413 3.90014741 -0.33782701 6.93476519 -2.4375 10.3125 C-4.2674196 13.45996171 -5.60427969 16.63758288 -7 20 C-8.50663783 23.01327566 -11.03166411 23.61056618 -14 25 C-13.34 23.02 -12.68 21.04 -12 19 C-11.34 19 -10.68 19 -10 19 C-9.79375 18.21625 -9.5875 17.4325 -9.375 16.625 C-7.09695051 10.61923316 -3.55287838 5.32931757 0 0 Z " fill="#0E8D62" transform="translate(142,155)"/>
<path d="M0 0 C0.66 0.33 1.32 0.66 2 1 C0.37660195 2.70884005 -1.29319053 4.37446717 -3 6 C-3.66 6 -4.32 6 -5 6 C-5.12375 6.556875 -5.2475 7.11375 -5.375 7.6875 C-5.684375 8.8321875 -5.684375 8.8321875 -6 10 C-6.20625 10.845625 -6.4125 11.69125 -6.625 12.5625 C-8 15 -8 15 -11.4375 16.4375 C-15.75403241 18.33071597 -16.10784476 19.85527901 -18 24 C-20.1875 24.875 -20.1875 24.875 -22 25 C-17.44298147 14.84705717 -8.27650164 7.1317145 0 0 Z " fill="#90C9B3" transform="translate(295,118)"/>
<path d="M0 0 C1 2 1 2 0.44140625 4.1640625 C0.15136719 4.97617188 -0.13867188 5.78828125 -0.4375 6.625 C-0.86869141 7.85089844 -0.86869141 7.85089844 -1.30859375 9.1015625 C-1.53675781 9.72804687 -1.76492188 10.35453125 -2 11 C-4.33333333 11 -6.66666667 11 -9 11 C-9.09152344 11.59296875 -9.18304688 12.1859375 -9.27734375 12.796875 C-10.17232113 15.52534657 -11.33906301 16.47125041 -13.5625 18.25 C-14.20316406 18.77078125 -14.84382813 19.2915625 -15.50390625 19.828125 C-15.99761719 20.21484375 -16.49132812 20.6015625 -17 21 C-17.66 20.67 -18.32 20.34 -19 20 C-16.39660435 17.22844136 -13.79214986 14.45787994 -11.1875 11.6875 C-10.44951172 10.90181641 -9.71152344 10.11613281 -8.95117188 9.30664062 C-8.23896484 8.54931641 -7.52675781 7.79199219 -6.79296875 7.01171875 C-5.81106567 5.96697388 -5.81106567 5.96697388 -4.80932617 4.90112305 C-3.22986292 3.24152511 -1.62871814 1.61108655 0 0 Z " fill="#33AC70" transform="translate(288,218)"/>
<path d="M0 0 C0.74056641 0.05671875 1.48113281 0.1134375 2.24414062 0.171875 C4.05943743 0.31241411 5.87361597 0.46727095 7.6875 0.625 C7.6875 0.955 7.6875 1.285 7.6875 1.625 C1.09018996 2.73714883 -5.44476152 3.69477387 -12.125 4.125 C-17.09346509 4.45663299 -21.54034705 5.2214256 -26.3125 6.625 C-25.9825 4.975 -25.6525 3.325 -25.3125 1.625 C-24.10013672 1.65980469 -24.10013672 1.65980469 -22.86328125 1.6953125 C-21.79464844 1.71335938 -20.72601563 1.73140625 -19.625 1.75 C-18.56925781 1.77320313 -17.51351563 1.79640625 -16.42578125 1.8203125 C-13.3586934 1.80504882 -13.3586934 1.80504882 -10.9375 0.59375 C-7.25334868 -0.76587727 -3.8333875 -0.34257261 0 0 Z " fill="#128A64" transform="translate(362.3125,160.375)"/>
<path d="M0 0 C1.60727327 0.22917968 3.21087416 0.48420802 4.8125 0.75 C5.70582031 0.88921875 6.59914063 1.0284375 7.51953125 1.171875 C10.50572658 2.168841 11.38380344 3.3582435 13 6 C11.61811547 9.21043882 10.07578097 11.04936365 7.375 13.25 C6.74335938 13.77078125 6.11171875 14.2915625 5.4609375 14.828125 C4.97882813 15.21484375 4.49671875 15.6015625 4 16 C3.34 15.67 2.68 15.34 2 15 C2.56589844 14.51789063 3.13179688 14.03578125 3.71484375 13.5390625 C4.81505859 12.59160156 4.81505859 12.59160156 5.9375 11.625 C6.66839844 10.99851563 7.39929688 10.37203125 8.15234375 9.7265625 C10.08380906 8.12252286 10.08380906 8.12252286 11 6 C10.28972656 6.01160156 9.57945312 6.02320312 8.84765625 6.03515625 C7.92855469 6.04417969 7.00945312 6.05320312 6.0625 6.0625 C5.14597656 6.07410156 4.22945313 6.08570312 3.28515625 6.09765625 C1 6 1 6 0 5 C-0.04063832 3.33382885 -0.042721 1.66611905 0 0 Z " fill="#67C99D" transform="translate(466,120)"/>
<path d="M0 0 C0.66 0.33 1.32 0.66 2 1 C-3.45510287 6.09799681 -9.0339936 10.93271244 -14.9375 15.5 C-15.77027466 16.1494458 -15.77027466 16.1494458 -16.61987305 16.81201172 C-19.07925567 18.6920296 -21.038583 20.012861 -24 21 C-25.19126781 17.42619658 -24.7349445 15.49116698 -24.0625 11.8125 C-23.86785156 10.72582031 -23.67320312 9.63914063 -23.47265625 8.51953125 C-23.31667969 7.68808594 -23.16070312 6.85664063 -23 6 C-22.67 6 -22.34 6 -22 6 C-22 9.96 -22 13.92 -22 18 C-21.33613281 17.46890625 -20.67226563 16.9378125 -19.98828125 16.390625 C-12 10 -12 10 -9.21875 7.875 C-6.87198388 5.89181736 -6.32123382 4.99818234 -6 2 C-4.7934375 1.7834375 -4.7934375 1.7834375 -3.5625 1.5625 C-1.07896294 1.25864751 -1.07896294 1.25864751 0 0 Z " fill="#BCE7D9" transform="translate(397,192)"/>
<path d="M0 0 C0.99 0.33 1.98 0.66 3 1 C2.29822632 1.44484741 2.29822632 1.44484741 1.58227539 1.89868164 C-11.08332061 9.92020507 -11.08332061 9.92020507 -23 19 C-23.66 18.67 -24.32 18.34 -25 18 C-21.375 11.25 -21.375 11.25 -18 9 C-16.515 8.6596875 -16.515 8.6596875 -15 8.3125 C-10.21590054 7.08580783 -6.45796407 4.15436323 -2.453125 1.36328125 C-1.64359375 0.91339844 -0.8340625 0.46351562 0 0 Z " fill="#95C8BA" transform="translate(309,92)"/>
<path d="M0 0 C4.94246987 0.43610028 7.34433095 2.81101211 11 6 C11.7425 6.28875 12.485 6.5775 13.25 6.875 C16.18855005 8.76406789 16.2777971 11.75008693 17 15 C12.2 12.53846154 12.2 12.53846154 11.1875 9.8125 C11.125625 9.214375 11.06375 8.61625 11 8 C9.865625 7.87625 8.73125 7.7525 7.5625 7.625 C6.386875 7.41875 5.21125 7.2125 4 7 C3.67 6.34 3.34 5.68 3 5 C2.01 5.33 1.02 5.66 0 6 C0 4.02 0 2.04 0 0 Z " fill="#3DB674" transform="translate(385,49)"/>
<path d="M0 0 C0 3 0 3 -2.046875 5.33984375 C-2.93890625 6.19707031 -3.8309375 7.05429688 -4.75 7.9375 C-5.63171875 8.79214844 -6.5134375 9.64679688 -7.421875 10.52734375 C-8.27265625 11.34332031 -9.1234375 12.15929687 -10 13 C-10.721875 13.76957031 -11.44375 14.53914062 -12.1875 15.33203125 C-12.785625 15.88246094 -13.38375 16.43289062 -14 17 C-16.25 16.75 -16.25 16.75 -18 16 C-17.01 16 -16.02 16 -15 16 C-15.103125 15.236875 -15.20625 14.47375 -15.3125 13.6875 C-15.209375 12.800625 -15.10625 11.91375 -15 11 C-12.5625 9.3125 -12.5625 9.3125 -10 8 C-9.67 7.34 -9.34 6.68 -9 6 C-8.34 6 -7.68 6 -7 6 C-7 5.34 -7 4.68 -7 4 C-6.34 4 -5.68 4 -5 4 C-5 3.01 -5 2.02 -5 1 C-3.35 0.67 -1.7 0.34 0 0 Z " fill="#208264" transform="translate(273,209)"/>
<path d="M0 0 C0.75023437 0.2165625 1.50046875 0.433125 2.2734375 0.65625 C8.26963582 2.2874576 13.58543155 3.25946856 19.796875 3.0390625 C22.61231515 2.98914335 25.25062298 3.42118379 28 4 C27.67 4.66 27.34 5.32 27 6 C17.49232119 6.322092 9.09743079 6.23806859 0 3 C0 2.01 0 1.02 0 0 Z " fill="#088158" transform="translate(152,399)"/>
<path d="M0 0 C0 1.32 0 2.64 0 4 C-1.5159375 4.309375 -1.5159375 4.309375 -3.0625 4.625 C-7.08549368 5.73704703 -9.54285014 7.91055231 -12.51953125 10.7578125 C-14 12 -14 12 -16 12 C-16 12.66 -16 13.32 -16 14 C-17.98 14.99 -17.98 14.99 -20 16 C-19.70540991 12.46491897 -19.25118587 11.23796556 -16.625 8.75 C-14 7 -14 7 -11 6 C-10.34 5.01 -9.68 4.02 -9 3 C-2.77777778 0 -2.77777778 0 0 0 Z " fill="#30B26D" transform="translate(177,97)"/>
<path d="M0 0 C0.66 0.33 1.32 0.66 2 1 C-3.24754242 6.38020501 -7.94769648 11.0615402 -15 14 C-17.1875 13.578125 -17.1875 13.578125 -19 13 C-17.27744283 11.53386553 -15.54666216 10.07738944 -13.8125 8.625 C-12.84957031 7.81289063 -11.88664062 7.00078125 -10.89453125 6.1640625 C-8.24237084 4.18120573 -6.08187964 3.10844075 -3 2 C-2.01 1.34 -1.02 0.68 0 0 Z " fill="#2BAF6C" transform="translate(93,257)"/>
<path d="M0 0 C0.99 0 1.98 0 3 0 C1.36437924 4.19001615 -1.72303156 6.98233899 -4.875 10.0625 C-5.40480469 10.59166016 -5.93460937 11.12082031 -6.48046875 11.66601562 C-9.1840845 14.33944212 -11.87224483 16.81661535 -15 19 C-15.66 18.67 -16.32 18.34 -17 18 C-17 17.01 -17 16.02 -17 15 C-16.236875 14.95875 -15.47375 14.9175 -14.6875 14.875 C-11.67594887 14.22176391 -11.67594887 14.22176391 -10.1875 10.9375 C-9.795625 9.968125 -9.40375 8.99875 -9 8 C-8.34 8 -7.68 8 -7 8 C-6.67 7.01 -6.34 6.02 -6 5 C-3.9375 4.3125 -3.9375 4.3125 -2 4 C-2 3.34 -2 2.68 -2 2 C-1.34 1.34 -0.68 0.68 0 0 Z " fill="#60BC8F" transform="translate(273,391)"/>
<path d="M0 0 C-4.03006139 3.35838449 -8.28753438 6.33451917 -12.59765625 9.31640625 C-14.99002282 10.94334387 -14.99002282 10.94334387 -17.05859375 12.71484375 C-19 14 -19 14 -23 14 C-23 13.34 -23 12.68 -23 12 C-21.68 12 -20.36 12 -19 12 C-18.814375 11.21625 -18.62875 10.4325 -18.4375 9.625 C-17 7 -17 7 -13.375 5.6875 C-12.26125 5.460625 -11.1475 5.23375 -10 5 C-10 4.01 -10 3.02 -10 2 C-6.49223216 0.39644899 -3.85645121 -0.22036864 0 0 Z " fill="#268566" transform="translate(314,179)"/>
<path d="M0 0 C-5.3733208 3.58221387 -9.6561317 4 -16 4 C-17.66967972 4.6590841 -19.33607955 5.32650839 -21 6 C-23.98990545 6.46037461 -26.98579537 6.750458 -30 7 C-27.79910275 3.69865412 -27.57814701 3.58555229 -23.96484375 2.83203125 C-23.15466797 2.66123047 -22.34449219 2.49042969 -21.50976562 2.31445312 C-20.23649414 2.06598633 -20.23649414 2.06598633 -18.9375 1.8125 C-17.70483398 1.54663086 -17.70483398 1.54663086 -16.44726562 1.27539062 C-10.86853104 0.13857532 -5.69017707 -0.16617838 0 0 Z " fill="#30A670" transform="translate(368,92)"/>
<path d="M0 0 C-3.93394688 4.44707038 -9.66330952 9.79408923 -15.78515625 10.171875 C-16.51605469 10.11515625 -17.24695313 10.0584375 -18 10 C-17.25 8.0625 -17.25 8.0625 -16 6 C-13.875 5.25 -13.875 5.25 -12 5 C-11.67 3.68 -11.34 2.36 -11 1 C-7.27569643 0.30710631 -3.78916254 -0.11144596 0 0 Z " fill="#257F67" transform="translate(310,91)"/>
<path d="M0 0 C0.66 0.33 1.32 0.66 2 1 C0.625 3 0.625 3 -1 5 C-1.66 5 -2.32 5 -3 5 C-3.33 5.99 -3.66 6.98 -4 8 C-6.18270567 9.94884435 -7.79608705 10.94173916 -10.625 11.75 C-13.4163202 12.87867388 -13.4163202 12.87867388 -14.3125 16.625 C-14.6528125 18.295625 -14.6528125 18.295625 -15 20 C-15.99 19.34 -16.98 18.68 -18 18 C-18.41893888 15.27689726 -18.46410193 13.70980295 -16.9375 11.375 C-15 10 -15 10 -11.8125 8.75 C-7.0700448 6.87531151 -3.65596446 3.46604423 0 0 Z " fill="#62B692" transform="translate(72,271)"/>
<path d="M0 0 C5.69702594 2.01071504 8.72492889 3.83928188 12 9 C12.3125 12.875 12.3125 12.875 12 16 C7.49486569 11.76790414 3.485708 7.11304141 0 2 C0 1.34 0 0.68 0 0 Z " fill="#56AC8D" transform="translate(81,323)"/>
<path d="M0 0 C0.66 0.33 1.32 0.66 2 1 C1.52167725 1.44802979 1.04335449 1.89605957 0.55053711 2.35766602 C-1.65493433 4.42474659 -3.85872408 6.49361193 -6.0625 8.5625 C-6.81466797 9.26697266 -7.56683594 9.97144531 -8.34179688 10.69726562 C-12.9776538 15.05216153 -17.53472584 19.47023241 -22 24 C-22 21 -22 21 -19.8125 18.66015625 C-17.93879746 16.92958376 -16.0637982 15.20041417 -14.1875 13.47265625 C-11.55826706 11.05091591 -11.55826706 11.05091591 -12 7 C-11.01 7 -10.02 7 -9 7 C-9 6.01 -9 5.02 -9 4 C-8.443125 4.268125 -7.88625 4.53625 -7.3125 4.8125 C-6.549375 4.874375 -5.78625 4.93625 -5 5 C-2.22877725 2.64573501 -2.22877725 2.64573501 0 0 Z " fill="#8BCBBB" transform="translate(285,200)"/>
<path d="M0 0 C0.33 0.66 0.66 1.32 1 2 C-0.34271946 4.42402452 -1.72658795 6.69404498 -3.25 9 C-3.65863281 9.64195312 -4.06726563 10.28390625 -4.48828125 10.9453125 C-6.46581866 13.98474298 -7.94928573 15.96619048 -11 18 C-11 16.02 -11 14.04 -11 12 C-9.68 11.67 -8.36 11.34 -7 11 C-6.938125 10.278125 -6.87625 9.55625 -6.8125 8.8125 C-5.75187255 5.1410973 -3.80330069 3.52297062 -1 1 C-0.67 0.67 -0.34 0.34 0 0 Z " fill="#4EB385" transform="translate(287,373)"/>
<path d="M0 0 C-0.54723683 3.37462715 -1.0549 5.08235 -3 8 C-3 6.68 -3 5.36 -3 4 C-4.65 4.66 -6.3 5.32 -8 6 C-8 3 -8 3 -7 0 C-4.05610218 -1.17755913 -3.10046087 -1.03348696 0 0 Z M-11 5 C-10.34 5.33 -9.68 5.66 -9 6 C-11.64 8.64 -14.28 11.28 -17 14 C-17.33 13.34 -17.66 12.68 -18 12 C-15.66666667 9.66666667 -13.33333333 7.33333333 -11 5 Z " fill="#21B269" transform="translate(286,229)"/>
<path d="M0 0 C0 3.56209836 -0.82989243 4.60568237 -2.8125 7.5 C-3.59560547 8.66015625 -3.59560547 8.66015625 -4.39453125 9.84375 C-5.81961056 11.75772513 -7.30729602 13.3308058 -9 15 C-10.03357147 16.64605826 -11.04060332 18.30963442 -12 20 C-12.6875 18.3125 -12.6875 18.3125 -13 16 C-11.625 13.375 -11.625 13.375 -10 11 C-9.67 10.34 -9.34 9.68 -9 9 C-8.34 9 -7.68 9 -7 9 C-7 8.01 -7 7.02 -7 6 C-6.34 6 -5.68 6 -5 6 C-5 4.68 -5 3.36 -5 2 C-3.35 1.34 -1.7 0.68 0 0 Z " fill="#60A791" transform="translate(263,132)"/>
<path d="M0 0 C-1.11806432 2.51564471 -2.29533983 4.35798767 -4.0625 6.5 C-6.11163125 8.7817082 -6.11163125 8.7817082 -6.5 11.1875 C-7 13 -7 13 -8.9375 14.3125 C-9.9584375 14.6528125 -9.9584375 14.6528125 -11 15 C-11.66 14.67 -12.32 14.34 -13 14 C-12.34 12.35 -11.68 10.7 -11 9 C-10.01 9 -9.02 9 -8 9 C-7.7525 8.071875 -7.505 7.14375 -7.25 6.1875 C-5.81584153 2.53039589 -4.19346816 0 0 0 Z " fill="#1E8B64" transform="translate(285,133)"/>
<path d="M0 0 C1.16337891 0.00322266 2.32675781 0.00644531 3.52539062 0.00976562 C4.74033203 0.01814453 5.95527344 0.02652344 7.20703125 0.03515625 C8.43357422 0.03966797 9.66011719 0.04417969 10.92382812 0.04882812 C13.95577793 0.0606256 16.98763031 0.07708704 20.01953125 0.09765625 C19.68953125 0.75765625 19.35953125 1.41765625 19.01953125 2.09765625 C13.19899437 3.11394047 8.15361667 3.0154333 2.31640625 2.28125 C-0.55771743 2.05151562 -3.15173471 2.61470166 -5.98046875 3.09765625 C-6.97046875 2.43765625 -7.96046875 1.77765625 -8.98046875 1.09765625 C-5.74295197 0.01848399 -3.40295104 -0.01659976 0 0 Z " fill="#0A8D5B" transform="translate(453.98046875,125.90234375)"/>
<path d="M0 0 C0.33 0 0.66 0 1 0 C1.50130606 5.26371362 0.31168629 7.9090934 -3 12 C-3.66 12 -4.32 12 -5 12 C-5.03738281 12.61488281 -5.07476562 13.22976562 -5.11328125 13.86328125 C-5.21189453 15.07564453 -5.21189453 15.07564453 -5.3125 16.3125 C-5.37050781 17.11300781 -5.42851562 17.91351563 -5.48828125 18.73828125 C-6.08206694 21.36272334 -6.95780294 22.30820672 -9 24 C-8.33828503 15.06684795 -5.45339417 7.14582685 0 0 Z " fill="#45B477" transform="translate(147,120)"/>
<path d="M0 0 C0.598125 0.165 1.19625 0.33 1.8125 0.5 C4.11344336 1.1114124 4.11344336 1.1114124 7 1 C1.39 5.62 -4.22 10.24 -10 15 C-10.66 14.67 -11.32 14.34 -12 14 C-11.3125 12.125 -11.3125 12.125 -10 10 C-8.34183216 9.31246699 -6.67540664 8.64438717 -5 8 C-4.67 7.01 -4.34 6.02 -4 5 C-3.01 5 -2.02 5 -1 5 C-0.67 3.35 -0.34 1.7 0 0 Z " fill="#86C4B1" transform="translate(438,155)"/>
<path d="M0 0 C4.50513431 4.23209586 8.514292 8.88695859 12 14 C12 14.66 12 15.32 12 16 C11.01 16.33 10.02 16.66 9 17 C9 16.34 9 15.68 9 15 C8.39671875 14.7834375 7.7934375 14.566875 7.171875 14.34375 C4.24063636 12.53017789 3.59003459 10.64329102 2.25 7.5 C1.82203125 6.5203125 1.3940625 5.540625 0.953125 4.53125 C0 2 0 2 0 0 Z " fill="#5CBD8C" transform="translate(131,258)"/>
<path d="M0 0 C1.32 0.33 2.64 0.66 4 1 C-5.17698471 9.58557902 -5.17698471 9.58557902 -11 12 C-11.99 12.495 -11.99 12.495 -13 13 C-12.25 8.25 -12.25 8.25 -10 6 C-7.375 5.875 -7.375 5.875 -5 6 C-5 5.34 -5 4.68 -5 4 C-4.0409375 3.8453125 -4.0409375 3.8453125 -3.0625 3.6875 C-2.381875 3.460625 -1.70125 3.23375 -1 3 C-0.67 2.01 -0.34 1.02 0 0 Z " fill="#369671" transform="translate(407,182)"/>
<path d="M0 0 C3.85955925 3.74666538 7.36619254 7.68521322 10.8125 11.8125 C11.31458984 12.40998047 11.81667969 13.00746094 12.33398438 13.62304688 C13.55806732 15.08028848 14.77932962 16.53989865 16 18 C13.50907189 19.24546405 12.58919267 18.7767578 10 18 C9.938125 17.236875 9.87625 16.47375 9.8125 15.6875 C9.27871199 12.80677219 9.27871199 12.80677219 6.6875 11.6875 C2.91269933 9.31727632 1.55779835 6.0990113 0 2 C0 1.34 0 0.68 0 0 Z " fill="#72BFA0" transform="translate(167,306)"/>
<path d="M0 0 C0 3.51775511 -0.63332184 4.18199858 -2.75 6.875 C-3.29398438 7.57367188 -3.83796875 8.27234375 -4.3984375 8.9921875 C-4.92695313 9.65476562 -5.45546875 10.31734375 -6 11 C-7.175625 12.485 -7.175625 12.485 -8.375 14 C-8.91125 14.66 -9.4475 15.32 -10 16 C-10.66 15.67 -11.32 15.34 -12 15 C-9.59562673 9.34265113 -5.64416752 2.82208376 0 0 Z " fill="#2BA66C" transform="translate(242,271)"/>
<path d="M0 0 C0.99 0 1.98 0 3 0 C3.66 1.32 4.32 2.64 5 4 C3.68 4.33 2.36 4.66 1 5 C0.71125 6.19625 0.4225 7.3925 0.125 8.625 C-0.76354876 12.14790811 -1.67707148 15.60999567 -3 19 C-3.66 19.33 -4.32 19.66 -5 20 C-4.35485079 15.85615699 -3.52186001 11.81700283 -2.5 7.75 C-2.2421875 6.71359375 -1.984375 5.6771875 -1.71875 4.609375 C-1 2 -1 2 0 0 Z " fill="#0B7D5C" transform="translate(289,218)"/>
<path d="M0 0 C1.60488281 0.00483398 1.60488281 0.00483398 3.2421875 0.00976562 C4.35335937 0.01814453 5.46453125 0.02652344 6.609375 0.03515625 C8.29933594 0.04192383 8.29933594 0.04192383 10.0234375 0.04882812 C12.80213717 0.06060228 15.58072909 0.07704785 18.359375 0.09765625 C18.359375 0.42765625 18.359375 0.75765625 18.359375 1.09765625 C8.459375 1.59265625 8.459375 1.59265625 -1.640625 2.09765625 C-1.970625 2.75765625 -2.300625 3.41765625 -2.640625 4.09765625 C-6.14997686 4.09765625 -9.20547498 3.72222898 -12.640625 3.09765625 C-8.3148298 0.21379278 -5.14397057 -0.02736155 0 0 Z " fill="#279E67" transform="translate(201.640625,90.90234375)"/>
<path d="M0 0 C0.66 0.33 1.32 0.66 2 1 C-0.1847753 2.27571484 -2.37261619 3.54560673 -4.5625 4.8125 C-5.17158203 5.16892578 -5.78066406 5.52535156 -6.40820312 5.89257812 C-17.36221673 12.20997221 -17.36221673 12.20997221 -21.4375 11.6875 C-21.953125 11.460625 -22.46875 11.23375 -23 11 C-21.865625 10.566875 -20.73125 10.13375 -19.5625 9.6875 C-18.386875 9.130625 -17.21125 8.57375 -16 8 C-15.67 7.01 -15.34 6.02 -15 5 C-14.195625 5.103125 -13.39125 5.20625 -12.5625 5.3125 C-8.18213149 4.92825715 -5.62661202 3.30139428 -1.953125 0.99609375 C-1.30859375 0.66738281 -0.6640625 0.33867187 0 0 Z " fill="#A4E3C5" transform="translate(254,410)"/>
<path d="M0 0 C-11.02702703 8 -11.02702703 8 -15 8 C-14.6875 6.125 -14.6875 6.125 -14 4 C-11 2 -11 2 -8 2 C-8 1.34 -8 0.68 -8 0 C-4.90645403 -0.99435406 -3.09720845 -0.87840996 0 0 Z " fill="#176F5E" transform="translate(328,193)"/>
<path d="M0 0 C0.33 0 0.66 0 1 0 C2.125 6.75 2.125 6.75 1 9 C0.855625 9.928125 0.71125 10.85625 0.5625 11.8125 C0.03608307 14.79552927 -0.78224947 17.23976546 -2 20 C-2.33 20 -2.66 20 -3 20 C-2.88613541 17.22829605 -2.75939222 14.45821954 -2.625 11.6875 C-2.5940625 10.90181641 -2.563125 10.11613281 -2.53125 9.30664062 C-2.49257813 8.54931641 -2.45390625 7.79199219 -2.4140625 7.01171875 C-2.3826416 6.31522217 -2.3512207 5.61872559 -2.31884766 4.90112305 C-2 3 -2 3 0 0 Z " fill="#228F65" transform="translate(380,178)"/>
<path d="M0 0 C0.99 0.99 1.98 1.98 3 3 C2.34 4.98 1.68 6.96 1 9 C0.34 9 -0.32 9 -1 9 C-1.33 9.99 -1.66 10.98 -2 12 C-2.66 12 -3.32 12 -4 12 C-4.66 13.65 -5.32 15.3 -6 17 C-6.33 16.34 -6.66 15.68 -7 15 C-5.92591043 12.39525962 -4.79954367 9.90033962 -3.5625 7.375 C-3.22412109 6.66859375 -2.88574219 5.9621875 -2.53710938 5.234375 C-1.69845121 3.48618616 -0.85012153 1.74264314 0 0 Z " fill="#549F8B" transform="translate(264,156)"/>
<path d="M0 0 C0.66 0.33 1.32 0.66 2 1 C1.67515625 1.87011719 1.67515625 1.87011719 1.34375 2.7578125 C-0.28435049 7.32553887 -1.37861182 11.0780464 -1 16 C-1.66 16.33 -2.32 16.66 -3 17 C-4.13350534 19.01669827 -4.13350534 19.01669827 -5 21 C-4.88485851 18.95775363 -4.75742674 16.91619841 -4.625 14.875 C-4.55539063 13.73804688 -4.48578125 12.60109375 -4.4140625 11.4296875 C-4.00556124 8.04606384 -3.19032431 5.18387559 -2 2 C-1.34 2 -0.68 2 0 2 C0 1.34 0 0.68 0 0 Z " fill="#167761" transform="translate(253,192)"/>
<path d="M0 0 C4.72541224 2.29520023 7.44991713 5.49666217 10 10 C10 10.66 10 11.32 10 12 C9.01 12 8.02 12 7 12 C7 11.34 7 10.68 7 10 C6.01 10 5.02 10 4 10 C2.375 8.9375 2.375 8.9375 1 7 C0.3125 3.3125 0.3125 3.3125 0 0 Z " fill="#74CBA0" transform="translate(121,246)"/>
<path d="M0 0 C1 2 1 2 0.375 5 C-1 8 -1 8 -3.31640625 8.8984375 C-6.59061786 10.24243703 -8.0447913 11.93449816 -10.3125 14.625 C-11.35857422 15.85089844 -11.35857422 15.85089844 -12.42578125 17.1015625 C-12.94527344 17.72804688 -13.46476563 18.35453125 -14 19 C-14 15.45857065 -13.46448195 15.02150744 -11.19140625 12.4609375 C-10.60939453 11.79835938 -10.02738281 11.13578125 -9.42773438 10.453125 C-8.50444336 9.42445313 -8.50444336 9.42445313 -7.5625 8.375 C-6.95083984 7.68148438 -6.33917969 6.98796875 -5.70898438 6.2734375 C-1.41629464 1.41629464 -1.41629464 1.41629464 0 0 Z " fill="#8FD6B4" transform="translate(245,264)"/>
<path d="M0 0 C4.98965945 0.64607144 9.14605067 2.77827955 13.625 4.9375 C14.388125 5.29779297 15.15125 5.65808594 15.9375 6.02929688 C19.12666116 7.54834469 22.05145359 9.03430239 25 11 C19.05140508 10.48719009 14.46679855 8.66432429 9.125 6.0625 C8.35414063 5.70220703 7.58328125 5.34191406 6.7890625 4.97070312 C1.13375235 2.2675047 1.13375235 2.2675047 0 0 Z " fill="#B8EBD3" transform="translate(156,412)"/>
<path d="M0 0 C1.27102667 2.54205333 0.86940962 3.2848127 0 5.9375 C-0.94549873 8.36501301 -1.52549298 9.67562569 -3.69140625 11.15625 C-5.5625 11.9375 -5.5625 11.9375 -9 13 C-9.99 13.495 -9.99 13.495 -11 14 C-9.42219077 10.28954753 -7.09296752 7.70093616 -4.375 4.75 C-3.55773437 3.85796875 -2.74046875 2.9659375 -1.8984375 2.046875 C-1.27195313 1.37140625 -0.64546875 0.6959375 0 0 Z " fill="#78CDA4" transform="translate(257,250)"/>
<path d="M0 0 C0.33 0 0.66 0 1 0 C1.0272415 1.41655793 1.04650467 2.83327045 1.0625 4.25 C1.07410156 5.03890625 1.08570313 5.8278125 1.09765625 6.640625 C1.00385306 8.90691002 0.63241063 10.8288895 0 13 C0.99 12.34 1.98 11.68 3 11 C1.79618552 13.49361571 0.54571278 15.68143083 -1 18 C-1.99 18 -2.98 18 -4 18 C-3.31195504 11.80759538 -1.71951285 5.98044406 0 0 Z " fill="#98BEB6" transform="translate(238,237)"/>
<path d="M0 0 C2.1640625 -0.29296875 2.1640625 -0.29296875 4.625 -0.1875 C5.44226563 -0.16042969 6.25953125 -0.13335937 7.1015625 -0.10546875 C8.04128906 -0.05326172 8.04128906 -0.05326172 9 0 C6.38058783 1.74627478 4.96175123 2.38722388 2 3 C2 3.66 2 4.32 2 5 C0.04669132 6.03041513 -1.91281528 7.0490893 -3.875 8.0625 C-4.96554688 8.63097656 -6.05609375 9.19945312 -7.1796875 9.78515625 C-8.11039063 10.18605469 -9.04109375 10.58695313 -10 11 C-10.66 10.67 -11.32 10.34 -12 10 C-11.44570312 9.66226563 -10.89140625 9.32453125 -10.3203125 8.9765625 C-9.59585938 8.53054687 -8.87140625 8.08453125 -8.125 7.625 C-7.04605469 6.96371094 -7.04605469 6.96371094 -5.9453125 6.2890625 C-3.22267399 4.48490445 -1.82606276 2.73909414 0 0 Z " fill="#5FA699" transform="translate(152,164)"/>
<path d="M0 0 C-1.98 0.99 -1.98 0.99 -4 2 C-4 2.99 -4 3.98 -4 5 C-7.57644848 6.2380014 -10.33694766 5.74926071 -14 5 C-13 2 -13 2 -11.07421875 1.015625 C-9.89279297 0.63664062 -9.89279297 0.63664062 -8.6875 0.25 C-7.51767578 -0.14445312 -7.51767578 -0.14445312 -6.32421875 -0.546875 C-3.83078909 -1.03298902 -2.3818103 -0.80665429 0 0 Z " fill="#2EAB74" transform="translate(343,96)"/>
<path d="M0 0 C1.28586758 3.81893002 0.95573974 7.3289397 0.6875 11.3125 C0.60886719 12.58738281 0.53023438 13.86226563 0.44921875 15.17578125 C-0.00396398 19.03374553 -0.83099022 22.31165485 -2 26 C-2.33 26 -2.66 26 -3 26 C-3.48506832 17.10708083 -1.67625695 8.69059407 0 0 Z " fill="#26946B" transform="translate(309,289)"/>
<path d="M0 0 C1.15294668 3.45884004 0.79943888 4.47127724 -0.21484375 7.88671875 C-0.48876953 8.82451172 -0.76269531 9.76230469 -1.04492188 10.72851562 C-1.33947266 11.70498047 -1.63402344 12.68144531 -1.9375 13.6875 C-2.22818359 14.67556641 -2.51886719 15.66363281 -2.81835938 16.68164062 C-3.53793217 19.1234696 -4.26540993 21.56265482 -5 24 C-5.83595128 20.91497069 -6.04501287 18.56593575 -5.6875 15.375 C-5.60886719 14.59898437 -5.53023438 13.82296875 -5.44921875 13.0234375 C-5 11 -5 11 -3 9 C-2.835 7.845 -2.67 6.69 -2.5 5.5 C-2 2 -2 2 0 0 Z " fill="#7CB7A8" transform="translate(327,236)"/>
<path d="M0 0 C1.38149095 3.73002558 0.43774626 5.40563435 -1 9 C-1.33649305 11.3351807 -1.56028844 13.66064531 -1.75390625 16.01171875 C-2 18 -2 18 -3 20 C-3.66 20 -4.32 20 -5 20 C-5.33 21.98 -5.66 23.96 -6 26 C-7.12480322 22.65430873 -6.86109454 20.64953176 -5.8203125 17.3046875 C-5.55089844 16.42425781 -5.28148437 15.54382813 -5.00390625 14.63671875 C-4.71386719 13.72535156 -4.42382812 12.81398437 -4.125 11.875 C-3.84269531 10.95589844 -3.56039062 10.03679687 -3.26953125 9.08984375 C-1.19148166 2.38296332 -1.19148166 2.38296332 0 0 Z " fill="#7EB8AA" transform="translate(256,174)"/>
<path d="M0 0 C4.97360357 1.27231719 7.67296922 3.08584614 11 7 C11 7.66 11 8.32 11 9 C12.32 9.33 13.64 9.66 15 10 C15 11.32 15 12.64 15 14 C13.1875 13.875 13.1875 13.875 11 13 C9.96567096 11.01753602 8.96761608 9.01586684 8 7 C5.96682993 5.26574227 5.96682993 5.26574227 4 4 C3.67 3.34 3.34 2.68 3 2 C2.01 2 1.02 2 0 2 C0 1.34 0 0.68 0 0 Z " fill="#34B56F" transform="translate(413,73)"/>
<path d="M0 0 C1.32 0.33 2.64 0.66 4 1 C4 1.99 4 2.98 4 4 C5.32 4.33 6.64 4.66 8 5 C8.66 8.3 9.32 11.6 10 15 C5.65750136 11.14000121 3.37327994 7.27007751 1 2 C0.67 1.34 0.34 0.68 0 0 Z " fill="#2F936D" transform="translate(71,308)"/>
<path d="M0 0 C0 4.04016453 -1.46869212 4.9566059 -4.1875 7.875 C-5.00476563 8.75671875 -5.82203125 9.6384375 -6.6640625 10.546875 C-9.07166934 13.07526479 -11.49127434 15.57220098 -14 18 C-12.82165442 15.21481953 -11.54227266 13.48505674 -9.5 11.1875 C-6.72939701 7.99190777 -5.90200302 5.10001373 -5 1 C-4.01 1.33 -3.02 1.66 -2 2 C-1.34 1.34 -0.68 0.68 0 0 Z " fill="#96C7BD" transform="translate(256,229)"/>
<path d="M0 0 C-0.29754029 7.12608999 -1.71125344 12.6672508 -5 19 C-6.1171875 15.21875 -6.1171875 15.21875 -5.0625 13.25 C-3.89955727 10.78729774 -3.94526198 9.60954992 -4.0625 6.9375 C-4 3 -4 3 -2.5625 1 C-1 0 -1 0 0 0 Z " fill="#177260" transform="translate(335,202)"/>
<path d="M0 0 C0.66 0.33 1.32 0.66 2 1 C0.57391198 3.00907998 -0.86466032 5.00669514 -2.3125 7 C-2.71662109 7.57234375 -3.12074219 8.1446875 -3.53710938 8.734375 C-4.61900525 10.21208644 -5.80455549 11.61254109 -7 13 C-7.99 13 -8.98 13 -10 13 C-10.33 13.66 -10.66 14.32 -11 15 C-11.33 13.68 -11.66 12.36 -12 11 C-11.38125 10.896875 -10.7625 10.79375 -10.125 10.6875 C-7.63473516 10.12474627 -7.63473516 10.12474627 -6 7 C-5.566875 6.01 -5.566875 6.01 -5.125 5 C-3.78627736 2.62004865 -2.25167215 1.50111477 0 0 Z " fill="#25B671" transform="translate(146,148)"/>
<path d="M0 0 C-2.24867369 2.449833 -4.5420305 4.06154495 -7.4375 5.6875 C-8.58025391 6.34298828 -8.58025391 6.34298828 -9.74609375 7.01171875 C-12 8 -12 8 -16 8 C-16 7.34 -16 6.68 -16 6 C-14.27843904 4.98696238 -12.54738194 3.99005152 -10.8125 3 C-9.84957031 2.443125 -8.88664063 1.88625 -7.89453125 1.3125 C-4.95111257 -0.02216758 -3.18119943 -0.27915461 0 0 Z " fill="#33AB70" transform="translate(257,408)"/>
<path d="M0 0 C0.66 0 1.32 0 2 0 C1.67 1.98 1.34 3.96 1 6 C1.99 6 2.98 6 4 6 C4.33 5.01 4.66 4.02 5 3 C6 6 6 6 4.9375 8.4375 C2.66210152 11.44689798 0.21658847 13.07004692 -3 15 C-2.690625 14.195625 -2.38125 13.39125 -2.0625 12.5625 C-0.81434483 8.37750913 -0.3662304 4.33693899 0 0 Z " fill="#337A6B" transform="translate(239,237)"/>
<path d="M0 0 C0.29299363 8.78980892 0.29299363 8.78980892 -2 12 C-3.29470975 13.37086915 -4.62150897 14.71340837 -6 16 C-5.33333333 12.66666667 -4.66666667 9.33333333 -4 6 C-3.85433594 5.08605469 -3.70867187 4.17210937 -3.55859375 3.23046875 C-3.37425781 2.49441406 -3.18992188 1.75835937 -3 1 C-1 0 -1 0 0 0 Z " fill="#6ECA97" transform="translate(138,144)"/>
<path d="M0 0 C3.33727786 1.17255709 5.77437487 2.18868404 8 5 C8 5.66 8 6.32 8 7 C8.99 7.33 9.98 7.66 11 8 C11.6875 10.0625 11.6875 10.0625 12 12 C11.01 12.495 11.01 12.495 10 13 C6.40523299 9.50794062 3.07973809 5.95966325 0 2 C0 1.34 0 0.68 0 0 Z " fill="#6AB998" transform="translate(57,291)"/>
<path d="M0 0 C3.25516428 3.16474305 6.32008793 6.32752791 9 10 C9 10.66 9 11.32 9 12 C7.35 11.67 5.7 11.34 4 11 C4 10.01 4 9.02 4 8 C3.01 7.67 2.02 7.34 1 7 C0.67 4.69 0.34 2.38 0 0 Z " fill="#72C59F" transform="translate(143,274)"/>
<path d="M0 0 C-1.76915475 0.98219627 -3.54038569 1.96065359 -5.3125 2.9375 C-6.29863281 3.48277344 -7.28476563 4.02804688 -8.30078125 4.58984375 C-11 6 -11 6 -14 7 C-14 3 -14 3 -12.375 1.3125 C-8.14238578 -1.02657628 -4.57938979 -1.30275744 0 0 Z " fill="#1D7463" transform="translate(152,168)"/>
<path d="M0 0 C0.99 0 1.98 0 3 0 C4.65 3.63 6.3 7.26 8 11 C5.03 10.505 5.03 10.505 2 10 C1.34 6.7 0.68 3.4 0 0 Z " fill="#2BBA70" transform="translate(128,258)"/>
<path d="M0 0 C3.71547321 2.36439204 7.15425568 4.60699716 10 8 C10 8.99 10 9.98 10 11 C10.66 11.33 11.32 11.66 12 12 C10.35 12 8.7 12 7 12 C7 11.34 7 10.68 7 10 C6.34 10 5.68 10 5 10 C4.67 8.35 4.34 6.7 4 5 C3.01 4.67 2.02 4.34 1 4 C0.3125 1.9375 0.3125 1.9375 0 0 Z " fill="#69CB95" transform="translate(423,78)"/>
<path d="M0 0 C2.52891516 3.79337274 1.96078228 5.0422633 1.1875 9.4375 C0.99542969 10.57058594 0.80335938 11.70367187 0.60546875 12.87109375 C0.13995987 15.2767235 -0.366521 17.63462428 -1 20 C-1.99 19.67 -2.98 19.34 -4 19 C-3.84402344 18.43023437 -3.68804687 17.86046875 -3.52734375 17.2734375 C-3.00856862 15.03694028 -2.75894531 12.91018013 -2.5625 10.625 C-2.17654405 6.85881696 -1.36561351 3.55059514 0 0 Z " fill="#1D7F64" transform="translate(322,240)"/>
<path d="M0 0 C0 0.66 0 1.32 0 2 C-0.99 2 -1.98 2 -3 2 C-2.67 3.32 -2.34 4.64 -2 6 C-8.5 9 -8.5 9 -13 9 C-4.5 0 -4.5 0 0 0 Z " fill="#70BC9D" transform="translate(310,109)"/>
<path d="M0 0 C0.33 0 0.66 0 1 0 C1.33 2.31 1.66 4.62 2 7 C1.34 7 0.68 7 0 7 C0.061875 8.03125 0.12375 9.0625 0.1875 10.125 C-0.01135595 14.23468973 -0.94467803 16.48882496 -3 20 C-4.37344385 15.60155678 -3.24307502 12.07495445 -2.0625 7.75 C-1.86720703 7.00492188 -1.67191406 6.25984375 -1.47070312 5.4921875 C-0.98895802 3.65920614 -0.49560775 1.82928182 0 0 Z " fill="#92D2B5" transform="translate(131,160)"/>
<path d="M0 0 C0.74056641 0.05671875 1.48113281 0.1134375 2.24414062 0.171875 C4.05943743 0.31241411 5.87361597 0.46727095 7.6875 0.625 C7.6875 0.955 7.6875 1.285 7.6875 1.625 C5.64678485 1.96410994 3.60487379 2.29602704 1.5625 2.625 C-0.14292969 2.9034375 -0.14292969 2.9034375 -1.8828125 3.1875 C-5.10209233 3.59815984 -8.07481931 3.85022996 -11.3125 3.625 C-11.9725 2.965 -12.6325 2.305 -13.3125 1.625 C-8.83671488 -0.68793038 -4.87371482 -0.43554199 0 0 Z " fill="#248A6D" transform="translate(362.3125,160.375)"/>
<path d="M0 0 C1.08062462 3.24187386 0.96405231 3.89709861 0.00390625 7.01171875 C-0.33930664 8.14770508 -0.33930664 8.14770508 -0.68945312 9.30664062 C-0.93630859 10.09232422 -1.18316406 10.87800781 -1.4375 11.6875 C-1.68048828 12.48478516 -1.92347656 13.28207031 -2.17382812 14.10351562 C-2.77479738 16.07139534 -3.3863905 18.03602495 -4 20 C-4.33 20 -4.66 20 -5 20 C-5 17.36 -5 14.72 -5 12 C-4.34 12 -3.68 12 -3 12 C-3.061875 10.948125 -3.12375 9.89625 -3.1875 8.8125 C-2.9922214 4.84183507 -2.29674932 3.15803031 0 0 Z " fill="#7DC2A7" transform="translate(301,331)"/>
<path d="M0 0 C2.97 0 5.94 0 9 0 C9 0.66 9 1.32 9 2 C9.99 2.33 10.98 2.66 12 3 C5.07 3 -1.86 3 -9 3 C-9 2.67 -9 2.34 -9 2 C-6.03 2 -3.06 2 0 2 C0 1.34 0 0.68 0 0 Z " fill="#3A9377" transform="translate(370,160)"/>
<path d="M0 0 C-0.54855348 4.571279 -1.41744803 8.67435795 -3 13 C-3.33 13 -3.66 13 -4 13 C-4 11.35 -4 9.7 -4 8 C-4.66 8 -5.32 8 -6 8 C-3.73913043 0 -3.73913043 0 0 0 Z " fill="#53B38D" transform="translate(296,350)"/>
<path d="M0 0 C0.33 0.66 0.66 1.32 1 2 C-0.25644361 5.76933082 -1.78507904 6.73494205 -5 9 C-7.8125 10.25 -7.8125 10.25 -10 11 C-8.55218207 7.55571735 -6.72305391 5.63869038 -3.875 3.25 C-3.15054687 2.63640625 -2.42609375 2.0228125 -1.6796875 1.390625 C-0.84824219 0.70226562 -0.84824219 0.70226562 0 0 Z " fill="#6DC69A" transform="translate(268,239)"/>
<path d="M0 0 C0 0.99 0 1.98 0 3 C-0.969375 3.33 -1.93875 3.66 -2.9375 4 C-8.14444245 6.18734263 -11.96508403 10.14807342 -16 14 C-16.66 13.67 -17.32 13.34 -18 13 C-3.94444444 0 -3.94444444 0 0 0 Z " fill="#ADD9D1" transform="translate(312,198)"/>
<path d="M0 0 C-6.41894642 2.83914938 -10.86336065 4.13724306 -18 4 C-14.75932397 1.15070996 -12.11047996 0.39520825 -7.875 -0.25 C-6.82054687 -0.42015625 -5.76609375 -0.5903125 -4.6796875 -0.765625 C-2 -1 -2 -1 0 0 Z " fill="#21B675" transform="translate(200,402)"/>
<path d="M0 0 C0.66 0.33 1.32 0.66 2 1 C-1.69775785 8.32735426 -1.69775785 8.32735426 -4.890625 9.9765625 C-6.8125 10.5 -6.8125 10.5 -10 11 C-6.79239749 7.19364503 -3.59253891 3.45436433 0 0 Z " fill="#2B9667" transform="translate(216,300)"/>
<path d="M0 0 C0 0.66 0 1.32 0 2 C-1.98 2.66 -3.96 3.32 -6 4 C-5.9175 4.763125 -5.835 5.52625 -5.75 6.3125 C-6 9 -6 9 -7.875 10.8125 C-10 12 -10 12 -12 12 C-12 10.68 -12 9.36 -12 8 C-10.68 8 -9.36 8 -8 8 C-7.938125 7.236875 -7.87625 6.47375 -7.8125 5.6875 C-7 3 -7 3 -4.5625 1.1875 C-2 0 -2 0 0 0 Z " fill="#549A8E" transform="translate(320,193)"/>
<path d="M0 0 C0.99 0.66 1.98 1.32 3 2 C-5.63302139 9.29010695 -5.63302139 9.29010695 -11 9 C-11 8.34 -11 7.68 -11 7 C-9.02 6.67 -7.04 6.34 -5 6 C-4.67 5.01 -4.34 4.02 -4 3 C-3.01 3.33 -2.02 3.66 -1 4 C-0.67 2.68 -0.34 1.36 0 0 Z " fill="#228067" transform="translate(468,131)"/>
<path d="M0 0 C0.66 0.33 1.32 0.66 2 1 C-2.625 4 -2.625 4 -6 4 C-6 4.66 -6 5.32 -6 6 C-8.25 7.6875 -8.25 7.6875 -11 9 C-13.171875 8.58203125 -13.171875 8.58203125 -15 8 C-13.06453884 6.85072616 -11.12655872 5.70569358 -9.1875 4.5625 C-8.10855469 3.92441406 -7.02960938 3.28632813 -5.91796875 2.62890625 C-3 1 -3 1 0 0 Z " fill="#A3CDC8" transform="translate(335,184)"/>
<path d="M0 0 C-2.6210121 1.19706817 -5.24614696 2.38288646 -7.875 3.5625 C-8.62136719 3.90474609 -9.36773437 4.24699219 -10.13671875 4.59960938 C-12.06549332 5.45973857 -14.0311033 6.23616798 -16 7 C-16.66 6.67 -17.32 6.34 -18 6 C-16.35 5.34 -14.7 4.68 -13 4 C-13 3.01 -13 2.02 -13 1 C-11.58622218 0.63447197 -10.16879424 0.28304505 -8.75 -0.0625 C-7.96109375 -0.25972656 -7.1721875 -0.45695313 -6.359375 -0.66015625 C-3.87174253 -1.01847417 -2.38665107 -0.67152083 0 0 Z " fill="#95CAB9" transform="translate(336,171)"/>
<path d="M0 0 C-0.90363281 0.33773437 -1.80726563 0.67546875 -2.73828125 1.0234375 C-3.91777344 1.46945313 -5.09726563 1.91546875 -6.3125 2.375 C-8.07013672 3.03628906 -8.07013672 3.03628906 -9.86328125 3.7109375 C-13.08553593 4.91489648 -13.08553593 4.91489648 -16 7 C-18.1875 6.625 -18.1875 6.625 -20 6 C-5.36814394 -1.57617843 -5.36814394 -1.57617843 0 0 Z " fill="#A0DEBD" transform="translate(188,93)"/>
<path d="M0 0 C2.62901288 1.52206009 4.84365964 2.84365964 7 5 C7.125 7.625 7.125 7.625 7 10 C6.01 9.67 5.02 9.34 4 9 C4 8.34 4 7.68 4 7 C3.34 7 2.68 7 2 7 C1.34 4.69 0.68 2.38 0 0 Z " fill="#68CB96" transform="translate(400,58)"/>
<path d="M0 0 C4.54074179 1.42358391 7.03973147 3.72132073 10.3125 7.125 C11.19550781 8.03507812 12.07851563 8.94515625 12.98828125 9.8828125 C13.65214844 10.58148438 14.31601562 11.28015625 15 12 C10.6811346 12 8.78127223 9.38440717 5.8125 6.5625 C5.25369141 6.04623047 4.69488281 5.52996094 4.11914062 4.99804688 C2.72081232 3.69191604 1.357217 2.34880015 0 1 C0 0.67 0 0.34 0 0 Z " fill="#BFEFD6" transform="translate(383,43)"/>
<path d="M0 0 C-5.445 4.455 -5.445 4.455 -11 9 C-11.66 8.67 -12.32 8.34 -13 8 C-12.34 6.68 -11.68 5.36 -11 4 C-9.68 4 -8.36 4 -7 4 C-7.33 3.01 -7.66 2.02 -8 1 C-2.25 -1.125 -2.25 -1.125 0 0 Z " fill="#83C4AF" transform="translate(424,173)"/>
<path d="M0 0 C0.99 0.33 1.98 0.66 3 1 C1.42687504 4.93281241 0.5260303 6.69057041 -3.1875 8.875 C-4.115625 9.24625 -5.04375 9.6175 -6 10 C-5.34 8.02 -4.68 6.04 -4 4 C-3.34 4 -2.68 4 -2 4 C-1.34 2.68 -0.68 1.36 0 0 Z " fill="#128165" transform="translate(134,170)"/>
<path d="M0 0 C0.66 0.33 1.32 0.66 2 1 C0 4 0 4 -2.8125 5.375 C-6.25740676 7.13122698 -8.39899199 9.16949128 -11 12 C-11.66 11.67 -12.32 11.34 -13 11 C-8.94510767 6.72916666 -5.03681497 3.07122864 0 0 Z " fill="#9CE0BC" transform="translate(166,100)"/>
<path d="M0 0 C0.33 0 0.66 0 1 0 C1.07654536 4.51617599 1.10228696 8.59085217 0 13 C-0.99 13.33 -1.98 13.66 -3 14 C-2.40380045 9.13103697 -1.43023178 4.67209049 0 0 Z " fill="#68A498" transform="translate(248,200)"/>
<path d="M0 0 C-3.19668988 2.6486859 -6.39486597 4.93992341 -10 7 C-10 5.35 -10 3.7 -10 2 C-6.49223216 0.39644899 -3.85645121 -0.22036864 0 0 Z " fill="#2E8E6E" transform="translate(314,179)"/>
<path d="M0 0 C4.08963819 2.28538605 7.46362104 4.95706926 11 8 C9 9 9 9 6.5 8.3125 C3.65227922 6.81744659 3.20809704 5.88084678 2 3 C1.34 2.67 0.68 2.34 0 2 C0 1.34 0 0.68 0 0 Z " fill="#7ED4A6" transform="translate(463,113)"/>
<path d="M0 0 C1.32 0.66 2.64 1.32 4 2 C1.36 4.31 -1.28 6.62 -4 9 C-4.33 7.68 -4.66 6.36 -5 5 C-4.360625 4.54625 -3.72125 4.0925 -3.0625 3.625 C-0.90297594 2.16078274 -0.90297594 2.16078274 0 0 Z " fill="#65AF98" transform="translate(280,110)"/>
<path d="M0 0 C1.98 0 3.96 0 6 0 C5.1875 2.4375 5.1875 2.4375 4 5 C3.01 5.33 2.02 5.66 1 6 C0.34 5.67 -0.32 5.34 -1 5 C-0.67 3.35 -0.34 1.7 0 0 Z " fill="#228B69" transform="translate(281,105)"/>
<path d="M0 0 C-0.33 0.99 -0.66 1.98 -1 3 C-2.58086048 3.36504603 -4.16483907 3.71660506 -5.75 4.0625 C-6.63171875 4.25972656 -7.5134375 4.45695312 -8.421875 4.66015625 C-10.98679028 4.99825872 -12.57091639 4.81158635 -15 4 C-3 0 -3 0 0 0 Z " fill="#2EB372" transform="translate(239,416)"/>
<path d="M0 0 C0.33 0.66 0.66 1.32 1 2 C1.99 2.66 2.98 3.32 4 4 C-1.27749285 3.46148032 -5.25645564 2.22656164 -10 0 C-6.24527715 -2.59942351 -4.03404839 -1.7929104 0 0 Z " fill="#4FB986" transform="translate(181,419)"/>
<path d="M0 0 C0.33 0.66 0.66 1.32 1 2 C0.00390625 3.9453125 0.00390625 3.9453125 -1.4375 6.125 C-1.91058594 6.84945313 -2.38367188 7.57390625 -2.87109375 8.3203125 C-3.24363281 8.87460937 -3.61617188 9.42890625 -4 10 C-4.66 8.68 -5.32 7.36 -6 6 C-4 4 -2 2 0 0 Z " fill="#5BB68D" transform="translate(287,373)"/>
<path d="M0 0 C0.66 0.33 1.32 0.66 2 1 C-1.96 4.465 -1.96 4.465 -6 8 C-6.66 7.67 -7.32 7.34 -8 7 C-6.89300099 3.78970286 -5.98396175 2.99031023 -3 1.1875 C-1.515 0.5996875 -1.515 0.5996875 0 0 Z " fill="#539B87" transform="translate(260,224)"/>
<path d="M0 0 C0.99 0.66 1.98 1.32 3 2 C0.0094833 5.33557632 -2.93184627 7.15083921 -7 9 C-7 6 -7 6 -5.46875 4.39453125 C-4.49421875 3.61142578 -4.49421875 3.61142578 -3.5 2.8125 C-2.8503125 2.28269531 -2.200625 1.75289063 -1.53125 1.20703125 C-1.0259375 0.80871094 -0.520625 0.41039063 0 0 Z " fill="#32966F" transform="translate(297,118)"/>
<path d="M0 0 C-3.96 3.465 -3.96 3.465 -8 7 C-8.66 6.67 -9.32 6.34 -10 6 C-9.67 5.34 -9.34 4.68 -9 4 C-9.66 3.67 -10.32 3.34 -11 3 C-3.71428571 -1.85714286 -3.71428571 -1.85714286 0 0 Z " fill="#7EBDAD" transform="translate(468,137)"/>
<path d="M0 0 C0.66 0 1.32 0 2 0 C1.82374165 2.37948772 1.30280227 3.70225849 -0.40234375 5.37890625 C-1.90649092 6.62115486 -3.45129851 7.81376056 -5 9 C-5.66 8.67 -6.32 8.34 -7 8 C-7 7.01 -7 6.02 -7 5 C-5.824375 4.87625 -5.824375 4.87625 -4.625 4.75 C-1.85250896 4.27193661 -1.85250896 4.27193661 -0.6875 1.9375 C-0.460625 1.298125 -0.23375 0.65875 0 0 Z " fill="#7FCEA5" transform="translate(263,401)"/>
<path d="M0 0 C2 2 2 2 2.3125 4.875 C1.9736202 8.26379801 1.27183419 9.53884629 -1 12 C-2.09898702 8.70303895 -1.87124444 7.59505097 -1.0625 4.3125 C-0.86785156 3.50425781 -0.67320312 2.69601562 -0.47265625 1.86328125 C-0.31667969 1.24839844 -0.16070312 0.63351562 0 0 Z " fill="#208867" transform="translate(317,259)"/>
<path d="M0 0 C-1.65 1.98 -3.3 3.96 -5 6 C-5.66 5.67 -6.32 5.34 -7 5 C-6.625 2.5625 -6.625 2.5625 -6 0 C-3.50907189 -1.24546405 -2.58919267 -0.7767578 0 0 Z " fill="#73B3A0" transform="translate(294,194)"/>
<path d="M0 0 C1.32 0.33 2.64 0.66 4 1 C1.03 3.64 -1.94 6.28 -5 9 C-5.66 8.67 -6.32 8.34 -7 8 C-6.25 6.0625 -6.25 6.0625 -5 4 C-3.67405895 3.63837971 -2.34061543 3.30271961 -1 3 C-0.67 2.01 -0.34 1.02 0 0 Z " fill="#8DCAB3" transform="translate(407,182)"/>
<path d="M0 0 C3.82946843 1.45255699 5.12050295 3.42895561 7 7 C6.01 7.495 6.01 7.495 5 8 C2.21611025 6.29374499 1.14615794 5.52373261 0.25 2.3125 C0.1675 1.549375 0.085 0.78625 0 0 Z " fill="#4B9C82" transform="translate(92,336)"/>
<path d="M0 0 C2.93200474 2.85276137 5.64315404 5.65079784 8 9 C7.67 9.66 7.34 10.32 7 11 C2.34012809 7.9342948 1.14514798 5.41342681 0 0 Z " fill="#91D8B3" transform="translate(131,258)"/>
<path d="M0 0 C2.6875 -0.3125 2.6875 -0.3125 5 0 C1.83047153 3.26008643 -1.39937989 6.22237877 -5 9 C-4.35330586 7.65686601 -3.68096422 6.32608822 -3 5 C-2.3503125 3.63875 -2.3503125 3.63875 -1.6875 2.25 C-1.130625 1.5075 -0.57375 0.765 0 0 Z " fill="#87C1BA" transform="translate(135,175)"/>
<path d="M0 0 C0.66 0 1.32 0 2 0 C1.75 2.375 1.75 2.375 1 5 C-1.56310828 6.7941758 -2.83119306 7 -6 7 C-6 6.34 -6 5.68 -6 5 C-5.01 5 -4.02 5 -3 5 C-2.67 4.01 -2.34 3.02 -2 2 C-1.34 2 -0.68 2 0 2 C0 1.34 0 0.68 0 0 Z " fill="#379071" transform="translate(424,167)"/>
<path d="M0 0 C0.598125 0.165 1.19625 0.33 1.8125 0.5 C4.11344336 1.1114124 4.11344336 1.1114124 7 1 C2.375 5 2.375 5 -1 5 C-0.67 3.35 -0.34 1.7 0 0 Z " fill="#60AA92" transform="translate(438,155)"/>
<path d="M0 0 C2.475 0.495 2.475 0.495 5 1 C5.33 2.32 5.66 3.64 6 5 C5.01 5.33 4.02 5.66 3 6 C0.8614515 3.8614515 0.57344937 2.86724686 0 0 Z " fill="#2DBA6C" transform="translate(432,90)"/>
<path d="M0 0 C0.33 0 0.66 0 1 0 C1.33 2.64 1.66 5.28 2 8 C3.65 7.67 5.3 7.34 7 7 C7 7.66 7 8.32 7 9 C4.35261084 10.4606285 3.10551666 11 0 11 C0 7.37 0 3.74 0 0 Z " fill="#289D6D" transform="translate(376,194)"/>
<path d="M0 0 C-3.96 3.465 -3.96 3.465 -8 7 C-8.66 6.67 -9.32 6.34 -10 6 C-9.34 5.34 -8.68 4.68 -8 4 C-7.3574765 1.93125966 -7.3574765 1.93125966 -7 0 C-2.25 -1.125 -2.25 -1.125 0 0 Z " fill="#85BFAF" transform="translate(456,147)"/>
<path d="M0 0 C1.98 0.495 1.98 0.495 4 1 C4.33 2.32 4.66 3.64 5 5 C4.01 5.33 3.02 5.66 2 6 C1.01 5.01 0.02 4.02 -1 3 C-0.67 2.01 -0.34 1.02 0 0 Z " fill="#147760" transform="translate(131,384)"/>
<path d="M0 0 C1.32 0 2.64 0 4 0 C5.4606285 2.64738916 6 3.89448334 6 7 C3.00675737 5.9024777 2.15389099 5.32317108 0.75 2.375 C0.5025 1.59125 0.255 0.8075 0 0 Z " fill="#1C7B64" transform="translate(113,363)"/>
<path d="M0 0 C1.31534494 3.65857532 0.65468309 6.08026481 -0.4375 9.75 C-0.86869141 11.22726562 -0.86869141 11.22726562 -1.30859375 12.734375 C-1.53675781 13.48203125 -1.76492188 14.2296875 -2 15 C-2.33 15 -2.66 15 -3 15 C-2.8858134 13.06183265 -2.75826577 11.12444901 -2.625 9.1875 C-2.55539062 8.10855469 -2.48578125 7.02960938 -2.4140625 5.91796875 C-2 3 -2 3 0 0 Z " fill="#8ECCB3" transform="translate(305,315)"/>
<path d="M0 0 C-5.17578125 3.22265625 -5.17578125 3.22265625 -7 4 C-7.99 3.67 -8.98 3.34 -10 3 C-8 0 -8 0 -6.125 -0.75 C-3.80466218 -1.02298092 -2.21024918 -0.71043724 0 0 Z " fill="#319071" transform="translate(323,175)"/>
<path d="M0 0 C1.39195915 4.17587745 -0.17676781 6.13474776 -2 10 C-4 7 -4 7 -3.8125 5 C-2.90059285 2.75530549 -1.81466246 1.57796735 0 0 Z " fill="#117D5E" transform="translate(263,165)"/>
<path d="M0 0 C1.65 0 3.3 0 5 0 C3.41641358 3.16717283 2.54736301 4.73268318 -0.6875 6.3125 C-1.450625 6.539375 -2.21375 6.76625 -3 7 C-3 6.01 -3 5.02 -3 4 C-2.01 4 -1.02 4 0 4 C0 2.68 0 1.36 0 0 Z " fill="#368A71" transform="translate(444,150)"/>
<path d="M0 0 C0 3.7794561 -1.04679411 5.79116175 -3 9 C-5.1875 9.875 -5.1875 9.875 -7 10 C-5.33248852 6.05860922 -2.77289351 3.2107188 0 0 Z " fill="#9FD4C0" transform="translate(280,133)"/>
<path d="M0 0 C-4.48074195 3.36055646 -7.60550707 3.27429625 -13 3 C-8.8341563 0.22277086 -4.9360889 -1.89849573 0 0 Z " fill="#80CCAD" transform="translate(343,96)"/>
<path d="M0 0 C0.33 0.99 0.66 1.98 1 3 C3.97 3.495 3.97 3.495 7 4 C7 4.33 7 4.66 7 5 C5.54077307 4.88590407 4.08259402 4.75834456 2.625 4.625 C1.40683594 4.52058594 1.40683594 4.52058594 0.1640625 4.4140625 C-2 4 -2 4 -4 2 C-2.68 1.34 -1.36 0.68 0 0 Z " fill="#2CAC6E" transform="translate(184,418)"/>
<path d="M0 0 C0.66 0.33 1.32 0.66 2 1 C0.75 3.5 0.75 3.5 -1 6 C-2.32 6 -3.64 6 -5 6 C-4.75 4.125 -4.75 4.125 -4 2 C-2.0625 0.6875 -2.0625 0.6875 0 0 Z " fill="#29B26E" transform="translate(262,400)"/>
<path d="M0 0 C0.66 0 1.32 0 2 0 C1.25 7.625 1.25 7.625 -1 11 C-1.0270043 9.54176788 -1.04639787 8.08339325 -1.0625 6.625 C-1.07410156 5.81289063 -1.08570313 5.00078125 -1.09765625 4.1640625 C-1 2 -1 2 0 0 Z " fill="#82C3AB" transform="translate(307,304)"/>
<path d="M0 0 C1.40428987 4.98364524 0.50093672 8.4983139 -2 13 C-3.18771723 9.57056481 -2.80226223 7.62215325 -1.5625 4.25 C-1.27503906 3.45078125 -0.98757813 2.6515625 -0.69140625 1.828125 C-0.46324219 1.22484375 -0.23507812 0.6215625 0 0 Z " fill="#058858" transform="translate(287,225)"/>
<path d="M0 0 C0.33 0.66 0.66 1.32 1 2 C0.0625 4.625 0.0625 4.625 -1 7 C-2.65 7 -4.3 7 -6 7 C-4.02 4.69 -2.04 2.38 0 0 Z " fill="#40A377" transform="translate(288,218)"/>
<path d="M0 0 C4.24822374 0.47202486 6.19989709 2.96655518 9 6 C6.03 5.01 3.06 4.02 0 3 C0 2.01 0 1.02 0 0 Z " fill="#72CB9E" transform="translate(444,98)"/>
<path d="M0 0 C3 1 3 1 4.6875 4.0625 C5.120625 5.031875 5.55375 6.00125 6 7 C2.34683329 5.75023244 1.21934164 5.32901247 -1 2 C-0.67 1.34 -0.34 0.68 0 0 Z " fill="#83D1AC" transform="translate(150,405)"/>
<path d="M0 0 C2.875 0.625 2.875 0.625 6 2 C7.375 5.125 7.375 5.125 8 8 C6.85073734 7.04578192 5.70569459 6.08647955 4.5625 5.125 C3.92441406 4.59132813 3.28632813 4.05765625 2.62890625 3.5078125 C1 2 1 2 0 0 Z " fill="#88C5B1" transform="translate(132,391)"/>
<path d="M0 0 C0.66 0.33 1.32 0.66 2 1 C-1.75 6.875 -1.75 6.875 -4 8 C-4.33 7.01 -4.66 6.02 -5 5 C-3.35 3.35 -1.7 1.7 0 0 Z " fill="#31826E" transform="translate(294,212)"/>
<path d="M0 0 C0.1875 2.375 0.1875 2.375 0 5 C-0.99 5.66 -1.98 6.32 -3 7 C-4 6 -4 6 -4.0625 3.4375 C-4.041875 2.633125 -4.02125 1.82875 -4 1 C-2 0 -2 0 0 0 Z " fill="#27BB6D" transform="translate(152,119)"/>
<path d="M0 0 C2.0625 0.4375 2.0625 0.4375 4 1 C3.01 1.66 2.02 2.32 1 3 C0.34 2.34 -0.32 1.68 -1 1 C-0.67 0.67 -0.34 0.34 0 0 Z M-0.75 3.3125 C0.11625 3.6528125 0.11625 3.6528125 1 4 C-0.96466413 5.06775224 -2.96855359 6.06553465 -5 7 C-5.66 6.67 -6.32 6.34 -7 6 C-3.55384615 2.92307692 -3.55384615 2.92307692 -0.75 3.3125 Z " fill="#1F9564" transform="translate(307,112)"/>
<path d="M0 0 C3.77545388 1.09068668 6.47043472 1.9083091 9 5 C8.67 5.66 8.34 6.32 8 7 C6.66382648 6.02471263 5.3311249 5.04466681 4 4.0625 C3.2575 3.51722656 2.515 2.97195312 1.75 2.41015625 C1.1725 1.94480469 0.595 1.47945313 0 1 C0 0.67 0 0.34 0 0 Z " fill="#38B573" transform="translate(445,101)"/>
<path d="M0 0 C1.9375 0.6875 1.9375 0.6875 4 2 C4.75 4.625 4.75 4.625 5 7 C4.01 6.67 3.02 6.34 2 6 C2 5.34 2 4.68 2 4 C1.34 4 0.68 4 0 4 C0 2.68 0 1.36 0 0 Z " fill="#20826B" transform="translate(120,371)"/>
<path d="M0 0 C1.32 0.33 2.64 0.66 4 1 C4 1.66 4 2.32 4 3 C4.66 3.33 5.32 3.66 6 4 C5.67 5.32 5.34 6.64 5 8 C0 2.25 0 2.25 0 0 Z " fill="#88C9B3" transform="translate(87,331)"/>
<path d="M0 0 C2.4375 0.625 2.4375 0.625 5 2 C5.8125 5.125 5.8125 5.125 6 8 C1.125 3.375 1.125 3.375 0 0 Z " fill="#8ECAB8" transform="translate(75,315)"/>
<path d="M0 0 C4.875 4.625 4.875 4.625 6 8 C4.35 7.67 2.7 7.34 1 7 C0.67 4.69 0.34 2.38 0 0 Z " fill="#81D0B0" transform="translate(152,286)"/>
<path d="M0 0 C0.12375 0.598125 0.2475 1.19625 0.375 1.8125 C0.95475985 4.26231348 0.95475985 4.26231348 3 7 C2.67 7.99 2.34 8.98 2 10 C0.5 8.875 0.5 8.875 -1 7 C-1.25 3.875 -1.25 3.875 -1 1 C-0.67 0.67 -0.34 0.34 0 0 Z " fill="#319B70" transform="translate(58,284)"/>
<path d="M0 0 C0.33 1.32 0.66 2.64 1 4 C-4.625 7 -4.625 7 -8 7 C-5.36 4.69 -2.72 2.38 0 0 Z " fill="#4EB481" transform="translate(95,253)"/>
<path d="M0 0 C0.33 1.32 0.66 2.64 1 4 C-1.64 4.66 -4.28 5.32 -7 6 C-2.25 1.125 -2.25 1.125 0 0 Z " fill="#287967" transform="translate(307,202)"/>
<path d="M0 0 C0.66 0.33 1.32 0.66 2 1 C-3.75 6 -3.75 6 -6 6 C-6 4.68 -6 3.36 -6 2 C-4.7934375 1.7834375 -4.7934375 1.7834375 -3.5625 1.5625 C-1.07896294 1.25864751 -1.07896294 1.25864751 0 0 Z " fill="#80C2AA" transform="translate(397,192)"/>
<path d="M0 0 C1.65 0.33 3.3 0.66 5 1 C4.01 2.485 4.01 2.485 3 4 C0.375 4.1875 0.375 4.1875 -2 4 C-1.34 2.68 -0.68 1.36 0 0 Z " fill="#17795C" transform="translate(294,97)"/>
<path d="M0 0 C2.375 0.3125 2.375 0.3125 5 1 C5.66 1.99 6.32 2.98 7 4 C6.01 4.33 5.02 4.66 4 5 C3.67 4.34 3.34 3.68 3 3 C2.01 3.33 1.02 3.66 0 4 C0 2.68 0 1.36 0 0 Z " fill="#28BD6C" transform="translate(385,51)"/>
<path d="M0 0 C2.5 2.3125 2.5 2.3125 5 5 C5 5.99 5 6.98 5 8 C3.0625 7.375 3.0625 7.375 1 6 C0.25 2.875 0.25 2.875 0 0 Z " fill="#83CCAD" transform="translate(158,294)"/>
<path d="M0 0 C1.31223496 3.93670488 0.24296256 6.12488144 -1 10 C-1.33 10 -1.66 10 -2 10 C-2 7.03 -2 4.06 -2 1 C-1.34 0.67 -0.68 0.34 0 0 Z " fill="#85C1AE" transform="translate(311,294)"/>
<path d="M0 0 C1.32 0.33 2.64 0.66 4 1 C4.33 2.98 4.66 4.96 5 7 C3 7 3 7 1.375 5.75 C0 4 0 4 0 0 Z " fill="#2FAE71" transform="translate(139,273)"/>
<path d="M0 0 C0.66 0.33 1.32 0.66 2 1 C0.68 2.65 -0.64 4.3 -2 6 C-3.32 5.67 -4.64 5.34 -6 5 C-4.02 3.35 -2.04 1.7 0 0 Z " fill="#46AD78" transform="translate(85,261)"/>
<path d="M0 0 C-1.97420135 2.52259061 -2.96745642 2.9929808 -6.1875 3.6875 C-7.5796875 3.8421875 -7.5796875 3.8421875 -9 4 C-8.34 3.67 -7.68 3.34 -7 3 C-7 2.34 -7 1.68 -7 1 C-4.53721199 -0.231394 -2.7204945 -0.07159196 0 0 Z " fill="#258164" transform="translate(335,168)"/>
<path d="M0 0 C0.33 0.99 0.66 1.98 1 3 C-0.65 4.32 -2.3 5.64 -4 7 C-4 4 -4 4 -2 1.8125 C-1.34 1.214375 -0.68 0.61625 0 0 Z " fill="#0D845B" transform="translate(138,164)"/>
<path d="M0 0 C1.32 0 2.64 0 4 0 C4.33 2.31 4.66 4.62 5 7 C3.29115995 5.37660195 1.62553283 3.70680947 0 2 C0 1.34 0 0.68 0 0 Z " fill="#71B09F" transform="translate(100,348)"/>
<path d="M0 0 C0.33 0 0.66 0 1 0 C1 1.98 1 3.96 1 6 C0.34 6 -0.32 6 -1 6 C-1.33 6.99 -1.66 7.98 -2 9 C-2 6.69 -2 4.38 -2 2 C-1.34 2 -0.68 2 0 2 C0 1.34 0 0.68 0 0 Z " fill="#4DA085" transform="translate(317,269)"/>
<path d="M0 0 C0.33 0.66 0.66 1.32 1 2 C0.0625 4.625 0.0625 4.625 -1 7 C-1.99 6.67 -2.98 6.34 -4 6 C-1.125 1.125 -1.125 1.125 0 0 Z " fill="#36AA72" transform="translate(249,261)"/>
<path d="M0 0 C0.99 0.33 1.98 0.66 3 1 C0.03 3.475 0.03 3.475 -3 6 C-2.625 3.5625 -2.625 3.5625 -2 1 C-1.34 0.67 -0.68 0.34 0 0 Z " fill="#1FB068" transform="translate(252,260)"/>
<path d="M0 0 C0.66 0.33 1.32 0.66 2 1 C1.67 1.99 1.34 2.98 1 4 C-2.5625 5.1875 -2.5625 5.1875 -6 6 C-4 4 -2 2 0 0 Z " fill="#4AB47D" transform="translate(110,241)"/>
<path d="M0 0 C-1.8125 1.5625 -1.8125 1.5625 -4 3 C-4.99 2.67 -5.98 2.34 -7 2 C-7.33 1.34 -7.66 0.68 -8 0 C-4.94736336 -0.98120464 -3.05263664 -0.98120464 0 0 Z " fill="#1A7567" transform="translate(328,193)"/>
<path d="M0 0 C-0.99 1.32 -1.98 2.64 -3 4 C-3.99 3.67 -4.98 3.34 -6 3 C-6 2.01 -6 1.02 -6 0 C-3 -1 -3 -1 0 0 Z " fill="#208661" transform="translate(265,130)"/>
<path d="M0 0 C1.875 0.25 1.875 0.25 4 1 C5.25 3.0625 5.25 3.0625 6 5 C5.01 5.495 5.01 5.495 4 6 C2.04783565 4.04783565 1.15173355 2.46800047 0 0 Z " fill="#38B772" transform="translate(454,108)"/>
</svg>
